<svg width="37" height="36" viewBox="0 0 37 36" fill="none" xmlns="http://www.w3.org/2000/svg">
<path d="M1.164 31.87H34.892V36H1.164V31.87ZM35.904 12.538C35.8519 12.1707 35.7231 11.8185 35.526 11.5043C35.3288 11.1902 35.0676 10.921 34.7595 10.7144C34.4515 10.5078 34.1033 10.3684 33.7378 10.3053C33.3723 10.2422 32.9975 10.2567 32.638 10.348L23.21 13.29L10.962 0L7.536 1.054L14.886 15.854L6.072 18.61L2.574 15.43L0 16.23L3.23 22.756L4.596 25.502L7.436 24.614L16.856 21.69L24.578 19.29L34.004 16.358C34.7312 16.0614 35.3253 15.5098 35.6751 14.8066C36.0248 14.1035 36.1062 13.2969 35.904 12.538Z" fill="black"/>
</svg>
