<svg width="36" height="40" viewBox="0 0 36 40" fill="none" xmlns="http://www.w3.org/2000/svg">
<path d="M12 18V22H8V18H12ZM20 18V22H16V18H20ZM28 18V22H24V18H28ZM32 4C33.0609 4 34.0783 4.42143 34.8284 5.17157C35.5786 5.92172 36 6.93913 36 8V36C36 37.0609 35.5786 38.0783 34.8284 38.8284C34.0783 39.5786 33.0609 40 32 40H4C2.93913 40 1.92172 39.5786 1.17157 38.8284C0.421427 38.0783 0 37.0609 0 36V8C0 6.93913 0.421427 5.92172 1.17157 5.17157C1.92172 4.42143 2.93913 4 4 4H6V0H10V4H26V0H30V4H32ZM32 36V14H4V36H32ZM12 26V30H8V26H12ZM20 26V30H16V26H20ZM28 26V30H24V26H28Z" fill="black"/>
</svg>
