<svg width="44" height="28" viewBox="0 0 44 28" fill="none" xmlns="http://www.w3.org/2000/svg">
<path d="M39.4747 3.32217C38.4291 3.32217 37.5678 3.63921 36.8907 4.27328C36.2136 4.89842 35.7766 5.80933 35.5794 7.00603H40.7603V9.3637H35.3866L35.3609 9.83255V10.4622L35.3866 10.9042H39.9504V13.2887H35.6051C36.0422 15.4588 37.4178 16.5439 39.7319 16.5439C40.9575 16.5439 42.1359 16.2894 43.2672 15.7803V19.2096C42.273 19.7365 41.0174 20 39.5005 20C37.4007 20 35.6737 19.4061 34.3196 18.2184C32.9654 17.0306 32.1126 15.3874 31.7612 13.2887H30V10.9042H31.517C31.4827 10.6988 31.4656 10.422 31.4656 10.0737L31.4913 9.3637H30V7.00603H31.7098C32.0269 4.84483 32.8797 3.13909 34.2681 1.88881C35.6566 0.629605 37.3921 0 39.4747 0C41.086 0 42.5944 0.366153 44 1.09846L42.7401 4.2063C42.1488 3.92945 41.596 3.71512 41.0817 3.5633C40.5675 3.40255 40.0318 3.32217 39.4747 3.32217Z" fill="black"/>
<path d="M0 25.3742C-1.39616e-07 26.0704 0.31594 26.738 0.878367 27.2304C1.44079 27.7228 2.20367 27.9996 2.9993 28H25.0007C25.796 27.9996 26.5586 27.723 27.121 27.2309C27.6834 26.7389 27.9995 26.0716 28 25.3758V10.5H0V25.3742ZM20.0013 14.6564C20.0017 14.4827 20.0807 14.3162 20.2209 14.1933C20.3611 14.0703 20.5512 14.0008 20.7498 14H23.2495C23.4483 14.0004 23.6389 14.0697 23.7795 14.1927C23.9201 14.3157 23.9993 14.4825 23.9997 14.6564V16.8436C23.9993 17.0175 23.9201 17.1843 23.7795 17.3073C23.6389 17.4303 23.4483 17.4996 23.2495 17.5H20.7498C20.5509 17.4996 20.3604 17.4303 20.2198 17.3073C20.0792 17.1843 20 17.0175 19.9995 16.8436L20.0013 14.6564ZM20.0013 21.6564C20.0017 21.4825 20.0809 21.3157 20.2215 21.1927C20.3621 21.0697 20.5527 21.0004 20.7515 21H23.2513C23.4501 21.0004 23.6407 21.0697 23.7813 21.1927C23.9219 21.3157 24.0011 21.4825 24.0015 21.6564V23.8436C24.0011 24.0175 23.9219 24.1843 23.7813 24.3073C23.6407 24.4303 23.4501 24.4996 23.2513 24.5H20.7498C20.5509 24.4996 20.3604 24.4303 20.2198 24.3073C20.0792 24.1843 20 24.0175 19.9995 23.8436L20.0013 21.6564ZM12.0008 14.6564C12.0012 14.4825 12.0804 14.3157 12.221 14.1927C12.3616 14.0697 12.5522 14.0004 12.751 14H15.2507C15.4493 14.0004 15.6396 14.0695 15.7801 14.1922C15.9207 14.3149 16.0001 14.4812 16.001 14.6549V16.842C16.0005 17.016 15.9213 17.1827 15.7807 17.3057C15.6401 17.4287 15.4496 17.498 15.2507 17.4984H12.751C12.5522 17.498 12.3616 17.4287 12.221 17.3057C12.0804 17.1827 12.0012 17.016 12.0008 16.842V14.6564ZM12.0008 21.6564C12.0012 21.4825 12.0804 21.3157 12.221 21.1927C12.3616 21.0697 12.5522 21.0004 12.751 21H15.2507C15.4493 21.0004 15.6396 21.0695 15.7801 21.1922C15.9207 21.3149 16.0001 21.4812 16.001 21.6549V23.842C16.0005 24.016 15.9213 24.1827 15.7807 24.3057C15.6401 24.4287 15.4496 24.498 15.2507 24.4984H12.751C12.5522 24.498 12.3616 24.4287 12.221 24.3057C12.0804 24.1827 12.0012 24.016 12.0008 23.842V21.6564ZM4.00025 14.6564C4.00072 14.4825 4.07992 14.3157 4.22052 14.1927C4.36112 14.0697 4.55168 14.0004 4.75052 14H7.25024C7.44908 14.0004 7.63964 14.0697 7.78024 14.1927C7.92084 14.3157 8.00004 14.4825 8.00051 14.6564V16.8436C8.00004 17.0175 7.92084 17.1843 7.78024 17.3073C7.63964 17.4303 7.44908 17.4996 7.25024 17.5H4.75052C4.55168 17.4996 4.36112 17.4303 4.22052 17.3073C4.07992 17.1843 4.00072 17.0175 4.00025 16.8436V14.6564ZM4.00025 21.6564C4.00072 21.4825 4.07992 21.3157 4.22052 21.1927C4.36112 21.0697 4.55168 21.0004 4.75052 21H7.25024C7.44908 21.0004 7.63964 21.0697 7.78024 21.1927C7.92084 21.3157 8.00004 21.4825 8.00051 21.6564V23.8436C8.00004 24.0175 7.92084 24.1843 7.78024 24.3073C7.63964 24.4303 7.44908 24.4996 7.25024 24.5H4.75052C4.55168 24.4996 4.36112 24.4303 4.22052 24.3073C4.07992 24.1843 4.00072 24.0175 4.00025 23.8436V21.6564ZM25.0007 3.5H21.9996V0.874222C21.9987 0.642616 21.8931 0.420731 21.7059 0.256959C21.5188 0.0931884 21.2652 0.000819851 21.0004 0H19.0003C18.7356 0.000819851 18.482 0.0931884 18.2948 0.256959C18.1076 0.420731 18.0021 0.642616 18.0011 0.874222V3.5H10.0006V0.874222C9.9997 0.642348 9.89388 0.420228 9.70632 0.256412C9.51875 0.0925971 9.2647 0.000409671 8.99968 0H6.99956C6.73485 0.000819851 6.48125 0.0931884 6.29407 0.256959C6.10689 0.420731 6.00132 0.642616 6.00038 0.874222V3.5H2.9993C2.20398 3.50041 1.44137 3.77702 0.878995 4.26907C0.316619 4.76112 0.000471022 5.42836 0 6.12422V8.75H28V6.12422C27.9995 5.42836 27.6834 4.76112 27.121 4.26907C26.5586 3.77702 25.796 3.50041 25.0007 3.5Z" fill="black"/>
</svg>
