<svg width="37" height="37" viewBox="0 0 37 37" fill="none" xmlns="http://www.w3.org/2000/svg">
<path d="M8.02648 0.00167983C6.07383 -0.0386674 4.17603 0.649039 2.70252 1.93093C1.229 3.21282 0.285224 4.99715 0.054897 6.93659C-0.17543 8.87603 0.324178 10.8318 1.45646 12.4231C2.58875 14.0145 4.27269 15.1276 6.18048 15.5457L4.85648 33.7557C4.86031 34.0715 4.92961 34.3831 5.05998 34.6707C5.19034 34.9584 5.37896 35.2159 5.6139 35.427C5.84884 35.638 6.125 35.7981 6.42494 35.897C6.72487 35.9959 7.04207 36.0316 7.35648 36.0017H8.69048C9.00536 36.0325 9.3232 35.9975 9.62386 35.899C9.92451 35.8004 10.2014 35.6405 10.437 35.4294C10.6726 35.2182 10.8618 34.9604 10.9925 34.6723C11.1233 34.3842 11.1927 34.072 11.1965 33.7557L9.87248 15.5457C11.7736 15.1213 13.4496 14.0065 14.5757 12.4172C15.7019 10.8278 16.1982 8.87709 15.9684 6.9428C15.7386 5.0085 14.7991 3.22834 13.3318 1.94711C11.8646 0.66588 9.97409 -0.025218 8.02648 0.00767987V0.00167983ZM34.9145 0.00167983L32.6925 11.2517H31.0265L29.9145 0.00167983H28.8025L27.6905 11.2517H26.0245L23.8045 0.00167983H22.6925V14.6277C22.722 14.9531 22.8786 15.2538 23.1283 15.4646C23.378 15.6753 23.7007 15.7792 24.0265 15.7537H27.4985L26.1885 33.7537C26.1923 34.0699 26.2617 34.3818 26.3923 34.6698C26.5229 34.9577 26.7119 35.2154 26.9473 35.4266C27.1826 35.6377 27.4593 35.7977 27.7597 35.8963C28.0601 35.995 28.3778 36.0302 28.6925 35.9997H30.0265C30.3412 36.0302 30.6588 35.995 30.9592 35.8963C31.2597 35.7977 31.5363 35.6377 31.7717 35.4266C32.0071 35.2154 32.1961 34.9577 32.3267 34.6698C32.4573 34.3818 32.5267 34.0699 32.5305 33.7537L31.2205 15.7537H34.6925C35.0179 15.7792 35.3404 15.6756 35.59 15.4653C35.8397 15.2549 35.9965 14.9548 36.0265 14.6297V0.00167983H34.9145Z" fill="black"/>
</svg>
