<svg width="40" height="40" viewBox="0 0 40 40" fill="none" xmlns="http://www.w3.org/2000/svg">
<path fill-rule="evenodd" clip-rule="evenodd" d="M34.0112 19.9753L36.5866 15.5242L32.1348 12.951V7.81994H27.0054L24.4333 3.36829L19.9781 5.94343L15.5239 3.36655L12.9498 7.81994H7.82078V12.949L3.36807 15.5227L5.94478 19.9759L3.36757 24.43L7.81878 27.0029V32.1319H12.9498L15.5236 36.5846L19.976 34.0084L24.4319 36.584L27.0029 32.1319H32.1328V27.0029L36.5858 24.429L34.0112 19.9753ZM23.7968 39.6819L19.9768 37.4739L16.1608 39.6819C15.8528 39.8599 15.5068 39.9519 15.1588 39.9519C14.8081 39.9499 14.464 39.8567 14.1603 39.6813C13.8567 39.506 13.6038 39.2546 13.4268 38.9519L11.2188 35.1319H6.81878C6.28835 35.1319 5.77964 34.9212 5.40457 34.5462C5.02949 34.1711 4.81878 33.6624 4.81878 33.1319V28.7339L0.998781 26.5259C0.54119 26.2585 0.207871 25.8211 0.0714978 25.3089C-0.0648751 24.7968 0.00675851 24.2515 0.270781 23.7919L2.47878 19.9759L0.270781 16.1599C0.138539 15.9327 0.0525087 15.6815 0.0176333 15.4209C-0.017242 15.1602 -0.00027518 14.8953 0.0675591 14.6412C0.135393 14.3872 0.252758 14.149 0.41291 13.9405C0.573063 13.7319 0.772845 13.5571 1.00078 13.4259L4.82078 11.2179V6.81994C4.82078 6.28951 5.0315 5.7808 5.40657 5.40573C5.78164 5.03066 6.29035 4.81994 6.82078 4.81994H11.2188L13.4268 0.999945C13.692 0.540599 14.1288 0.205423 14.6412 0.0681468C15.1535 -0.0691288 15.6994 0.00274035 16.1588 0.267945L19.9788 2.47794L23.7988 0.269945C24.026 0.13782 24.2772 0.0521077 24.5377 0.0177762C24.7983 -0.0165554 25.0631 0.00117678 25.3168 0.069945C25.8282 0.208956 26.2644 0.543778 26.5308 1.00195L28.7368 4.81994H33.1348C33.6652 4.81994 34.1739 5.03066 34.549 5.40573C34.9241 5.7808 35.1348 6.28951 35.1348 6.81994V11.2199L38.9548 13.4279C39.4138 13.6935 39.7485 14.1305 39.8854 14.6428C40.0223 15.1551 39.9502 15.7008 39.6848 16.1599L37.4768 19.9759L39.6828 23.7919C39.8145 24.0194 39.9001 24.2705 39.9347 24.531C39.9693 24.7915 39.9522 25.0563 39.8844 25.3102C39.8166 25.5641 39.6994 25.8022 39.5396 26.0108C39.3797 26.2194 39.1803 26.3944 38.9528 26.5259L35.1328 28.7339V33.1319C35.1328 33.6624 34.9221 34.1711 34.547 34.5462C34.1719 34.9212 33.6632 35.1319 33.1328 35.1319H28.7348L26.5288 38.9519C26.2628 39.4105 25.8259 39.7449 25.3137 39.8818C24.8015 40.0186 24.256 39.9468 23.7968 39.6819Z" fill="black"/>
<path fill-rule="evenodd" clip-rule="evenodd" d="M14.9768 9.95594C15.7727 9.95621 16.5359 10.2726 17.0985 10.8356C17.6611 11.3986 17.977 12.162 17.9768 12.9579C17.9765 13.7539 17.6601 14.5171 17.0971 15.0797C16.5341 15.6423 15.7707 15.9582 14.9748 15.9579C14.1789 15.9577 13.4157 15.6412 12.853 15.0783C12.2904 14.5153 11.9745 13.7519 11.9748 12.9559C11.975 12.16 12.2915 11.3968 12.8545 10.8342C13.4174 10.2716 14.1809 9.95568 14.9768 9.95594ZM15.5768 29.1559L12.3768 26.7579L24.3768 10.7579L27.5768 13.1559L15.5768 29.1559ZM24.9768 29.9559C24.5827 29.9558 24.1925 29.8781 23.8284 29.7271C23.4644 29.5762 23.1336 29.355 22.855 29.0763C22.5765 28.7975 22.3555 28.4666 22.2048 28.1025C22.0541 27.7383 21.9766 27.348 21.9768 26.9539C21.9769 26.5598 22.0547 26.1696 22.2056 25.8056C22.3565 25.4415 22.5777 25.1108 22.8565 24.8322C23.1352 24.5536 23.4661 24.3327 23.8303 24.182C24.1944 24.0313 24.5847 23.9538 24.9788 23.9539C25.7747 23.9542 26.5379 24.2706 27.1005 24.8336C27.6631 25.3966 27.979 26.16 27.9788 26.9559C27.9785 27.7519 27.6621 28.5151 27.0991 29.0777C26.5361 29.6403 25.7727 29.9562 24.9768 29.9559Z" fill="black"/>
</svg>
