<svg width="36" height="36" viewBox="0 0 36 36" fill="none" xmlns="http://www.w3.org/2000/svg">
<path d="M34.9733 25.4389L27.0982 22.0638C26.7618 21.9204 26.3879 21.8902 26.0328 21.9777C25.6777 22.0652 25.3607 22.2657 25.1294 22.549L21.6419 26.81C16.1685 24.2293 11.7636 19.8245 9.18297 14.3511L13.444 10.8635C13.7278 10.6327 13.9287 10.3156 14.0163 9.96039C14.1038 9.60515 14.0732 9.23106 13.9291 8.89475L10.5541 1.01961C10.396 0.657083 10.1163 0.361088 9.76331 0.182669C9.41032 0.00425057 9.00614 -0.0454089 8.62046 0.0422538L1.30784 1.72978C0.935995 1.81565 0.604237 2.02502 0.366711 2.32371C0.129184 2.62241 -8.56569e-05 2.9928 4.25834e-08 3.37442C4.25834e-08 21.4099 14.6182 36 32.6256 36C33.0073 36.0002 33.3779 35.871 33.6767 35.6335C33.9755 35.396 34.185 35.0641 34.2709 34.6922L35.9584 27.3795C36.0455 26.992 35.9948 26.5862 35.815 26.232C35.6352 25.8778 35.3376 25.5973 34.9733 25.4389Z" fill="black"/>
</svg>
