<svg width="43" height="37" viewBox="0 0 43 37" fill="none" xmlns="http://www.w3.org/2000/svg">
<path d="M27.1579 33.4762C23.89 33.4762 20.7559 32.1768 18.4452 29.8638C16.1344 27.5509 14.8363 24.4139 14.8363 21.1429C14.8363 17.8719 16.1344 14.7348 18.4452 12.4219C20.7559 10.1089 23.89 8.80952 27.1579 8.80952C30.4258 8.80952 33.5599 10.1089 35.8706 12.4219C38.1814 14.7348 39.4795 17.8719 39.4795 21.1429C39.4795 24.4139 38.1814 27.5509 35.8706 29.8638C33.5599 32.1768 30.4258 33.4762 27.1579 33.4762ZM39.5323 11.2586L42.0319 8.75667C41.2398 7.85809 40.4477 7.04762 39.5499 6.27238L37.0504 8.80952C34.322 6.58952 30.8896 5.28571 27.1579 5.28571C22.9563 5.28571 18.9268 6.95637 15.9558 9.93016C12.9849 12.904 11.3158 16.9373 11.3158 21.1429C11.3158 25.3484 12.9849 29.3818 15.9558 32.3555C18.9268 35.3293 22.9563 37 27.1579 37C35.9591 37 43 29.8995 43 21.1429C43 17.4076 41.6974 13.9719 39.5323 11.2586ZM25.3977 22.9048H28.9181V12.3333H25.3977V22.9048ZM32.4386 0H21.8772V3.52381H32.4386V0Z" fill="black"/>
<path d="M4.82787 24.8168H9.65594V28.4413H4.82787V24.8168Z" fill="black"/>
<path d="M2.41443 12.7352H9.65653V16.3597H2.41443V12.7352Z" fill="black"/>
<path d="M0 18.7763H8.44912V22.4008H0V18.7763Z" fill="black"/>
</svg>
