<svg display="none" xmlns="http://www.w3.org/2000/svg">
  <symbol
    viewBox="0 0 37 36"
    id="airplane-takeoff"
  >
    <path
      d="M1.164 31.87H34.892V36H1.164V31.87ZM35.904 12.538C35.8519 12.1707 35.7231 11.8185 35.526 11.5043C35.3288 11.1902 35.0676 10.921 34.7595 10.7144C34.4515 10.5078 34.1033 10.3684 33.7378 10.3053C33.3723 10.2422 32.9975 10.2567 32.638 10.348L23.21 13.29L10.962 0L7.536 1.054L14.886 15.854L6.072 18.61L2.574 15.43L0 16.23L3.23 22.756L4.596 25.502L7.436 24.614L16.856 21.69L24.578 19.29L34.004 16.358C34.7312 16.0614 35.3253 15.5098 35.6751 14.8066C36.0248 14.1035 36.1062 13.2969 35.904 12.538Z"
    ></path>
  </symbol>

  <symbol
    viewBox="0 0 24 15"
    id="arrow-down"
  >
    <path
      d="M21.16 0.179999L12 9.34L2.82 0.18L-5.24537e-07 3L12 15L24 3L21.16 0.179999Z"
    ></path>
  </symbol>

  <symbol
    viewBox="0 0 38 30"
    id="arrow-right"
  >
    <path
      d="M0.19489 16.994V13.006H30.1479L20.8283 3.68629L23.6567 0.857866L37.7988 15L23.6567 29.1421L20.8283 26.3137L30.1479 16.994H0.19489Z"
    ></path>
  </symbol>
  <symbol xmlns="http://www.w3.org/2000/svg" viewBox="0 0 36 40" id="calendar">
    <path
      d="M12 18V22H8V18H12ZM20 18V22H16V18H20ZM28 18V22H24V18H28ZM32 4C33.0609 4 34.0783 4.42143 34.8284 5.17157C35.5786 5.92172 36 6.93913 36 8V36C36 37.0609 35.5786 38.0783 34.8284 38.8284C34.0783 39.5786 33.0609 40 32 40H4C2.93913 40 1.92172 39.5786 1.17157 38.8284C0.421427 38.0783 0 37.0609 0 36V8C0 6.93913 0.421427 5.92172 1.17157 5.17157C1.92172 4.42143 2.93913 4 4 4H6V0H10V4H26V0H30V4H32ZM32 36V14H4V36H32ZM12 26V30H8V26H12ZM20 26V30H16V26H20ZM28 26V30H24V26H28Z"
    ></path>
  </symbol>

  <symbol
    viewBox="0 0 44 28"
    id="calendar-euro"
  >
    <path
      d="M39.4747 3.32217C38.4291 3.32217 37.5678 3.63921 36.8907 4.27328C36.2136 4.89842 35.7766 5.80933 35.5794 7.00603H40.7603V9.3637H35.3866L35.3609 9.83255V10.4622L35.3866 10.9042H39.9504V13.2887H35.6051C36.0422 15.4588 37.4178 16.5439 39.7319 16.5439C40.9575 16.5439 42.1359 16.2894 43.2672 15.7803V19.2096C42.273 19.7365 41.0174 20 39.5005 20C37.4007 20 35.6737 19.4061 34.3196 18.2184C32.9654 17.0306 32.1126 15.3874 31.7612 13.2887H30V10.9042H31.517C31.4827 10.6988 31.4656 10.422 31.4656 10.0737L31.4913 9.3637H30V7.00603H31.7098C32.0269 4.84483 32.8797 3.13909 34.2681 1.88881C35.6566 0.629605 37.3921 0 39.4747 0C41.086 0 42.5944 0.366153 44 1.09846L42.7401 4.2063C42.1488 3.92945 41.596 3.71512 41.0817 3.5633C40.5675 3.40255 40.0318 3.32217 39.4747 3.32217Z"
    ></path>
    <path
      d="M0 25.3742C-1.39616e-07 26.0704 0.31594 26.738 0.878367 27.2304C1.44079 27.7228 2.20367 27.9996 2.9993 28H25.0007C25.796 27.9996 26.5586 27.723 27.121 27.2309C27.6834 26.7389 27.9995 26.0716 28 25.3758V10.5H0V25.3742ZM20.0013 14.6564C20.0017 14.4827 20.0807 14.3162 20.2209 14.1933C20.3611 14.0703 20.5512 14.0008 20.7498 14H23.2495C23.4483 14.0004 23.6389 14.0697 23.7795 14.1927C23.9201 14.3157 23.9993 14.4825 23.9997 14.6564V16.8436C23.9993 17.0175 23.9201 17.1843 23.7795 17.3073C23.6389 17.4303 23.4483 17.4996 23.2495 17.5H20.7498C20.5509 17.4996 20.3604 17.4303 20.2198 17.3073C20.0792 17.1843 20 17.0175 19.9995 16.8436L20.0013 14.6564ZM20.0013 21.6564C20.0017 21.4825 20.0809 21.3157 20.2215 21.1927C20.3621 21.0697 20.5527 21.0004 20.7515 21H23.2513C23.4501 21.0004 23.6407 21.0697 23.7813 21.1927C23.9219 21.3157 24.0011 21.4825 24.0015 21.6564V23.8436C24.0011 24.0175 23.9219 24.1843 23.7813 24.3073C23.6407 24.4303 23.4501 24.4996 23.2513 24.5H20.7498C20.5509 24.4996 20.3604 24.4303 20.2198 24.3073C20.0792 24.1843 20 24.0175 19.9995 23.8436L20.0013 21.6564ZM12.0008 14.6564C12.0012 14.4825 12.0804 14.3157 12.221 14.1927C12.3616 14.0697 12.5522 14.0004 12.751 14H15.2507C15.4493 14.0004 15.6396 14.0695 15.7801 14.1922C15.9207 14.3149 16.0001 14.4812 16.001 14.6549V16.842C16.0005 17.016 15.9213 17.1827 15.7807 17.3057C15.6401 17.4287 15.4496 17.498 15.2507 17.4984H12.751C12.5522 17.498 12.3616 17.4287 12.221 17.3057C12.0804 17.1827 12.0012 17.016 12.0008 16.842V14.6564ZM12.0008 21.6564C12.0012 21.4825 12.0804 21.3157 12.221 21.1927C12.3616 21.0697 12.5522 21.0004 12.751 21H15.2507C15.4493 21.0004 15.6396 21.0695 15.7801 21.1922C15.9207 21.3149 16.0001 21.4812 16.001 21.6549V23.842C16.0005 24.016 15.9213 24.1827 15.7807 24.3057C15.6401 24.4287 15.4496 24.498 15.2507 24.4984H12.751C12.5522 24.498 12.3616 24.4287 12.221 24.3057C12.0804 24.1827 12.0012 24.016 12.0008 23.842V21.6564ZM4.00025 14.6564C4.00072 14.4825 4.07992 14.3157 4.22052 14.1927C4.36112 14.0697 4.55168 14.0004 4.75052 14H7.25024C7.44908 14.0004 7.63964 14.0697 7.78024 14.1927C7.92084 14.3157 8.00004 14.4825 8.00051 14.6564V16.8436C8.00004 17.0175 7.92084 17.1843 7.78024 17.3073C7.63964 17.4303 7.44908 17.4996 7.25024 17.5H4.75052C4.55168 17.4996 4.36112 17.4303 4.22052 17.3073C4.07992 17.1843 4.00072 17.0175 4.00025 16.8436V14.6564ZM4.00025 21.6564C4.00072 21.4825 4.07992 21.3157 4.22052 21.1927C4.36112 21.0697 4.55168 21.0004 4.75052 21H7.25024C7.44908 21.0004 7.63964 21.0697 7.78024 21.1927C7.92084 21.3157 8.00004 21.4825 8.00051 21.6564V23.8436C8.00004 24.0175 7.92084 24.1843 7.78024 24.3073C7.63964 24.4303 7.44908 24.4996 7.25024 24.5H4.75052C4.55168 24.4996 4.36112 24.4303 4.22052 24.3073C4.07992 24.1843 4.00072 24.0175 4.00025 23.8436V21.6564ZM25.0007 3.5H21.9996V0.874222C21.9987 0.642616 21.8931 0.420731 21.7059 0.256959C21.5188 0.0931884 21.2652 0.000819851 21.0004 0H19.0003C18.7356 0.000819851 18.482 0.0931884 18.2948 0.256959C18.1076 0.420731 18.0021 0.642616 18.0011 0.874222V3.5H10.0006V0.874222C9.9997 0.642348 9.89388 0.420228 9.70632 0.256412C9.51875 0.0925971 9.2647 0.000409671 8.99968 0H6.99956C6.73485 0.000819851 6.48125 0.0931884 6.29407 0.256959C6.10689 0.420731 6.00132 0.642616 6.00038 0.874222V3.5H2.9993C2.20398 3.50041 1.44137 3.77702 0.878995 4.26907C0.316619 4.76112 0.000471022 5.42836 0 6.12422V8.75H28V6.12422C27.9995 5.42836 27.6834 4.76112 27.121 4.26907C26.5586 3.77702 25.796 3.50041 25.0007 3.5Z"
    ></path>
  </symbol>
  <symbol xmlns="http://www.w3.org/2000/svg" viewBox="0 0 39 32" id="checkmark">
    <path
      d="M12.9996 31.8398L0.57959 19.4198L6.23959 13.7598L12.9996 20.5398L32.7596 0.759766L38.4196 6.41976L12.9996 31.8398Z"
    ></path>
  </symbol>

  <symbol
    viewBox="0 0 40 40"
    id="checkmark-circle"
  >
    <path
      d="M20.0005 -0.000244141C8.97249 -0.000244141 0.000488281 8.97176 0.000488281 19.9998C0.000488281 31.0278 8.97249 39.9998 20.0005 39.9998C31.0285 39.9998 40.0005 31.0278 40.0005 19.9998C40.0005 8.97176 31.0285 -0.000244141 20.0005 -0.000244141ZM16.0025 28.8258L8.57649 21.4158L11.4005 18.5838L15.9985 23.1738L26.5865 12.5858L29.4145 15.4138L16.0025 28.8258Z"
    ></path>
  </symbol>
  <symbol xmlns="http://www.w3.org/2000/svg" viewBox="0 0 40 40" id="clock">
    <path
      d="M20 0C9 0 0 9 0 20C0 31 9 40 20 40C31 40 40 31 40 20C40 9 31 0 20 0ZM28.6 26.4L18 20.6V10H21V18.8L30 23.8L28.6 26.4Z"
    ></path>
  </symbol>

  <symbol
    viewBox="0 0 40 32"
    id="credit-card"
  >
    <path
      d="M36 0H4C1.78 0 0.02 1.78 0.02 4L0 28C0 30.22 1.78 32 4 32H36C38.22 32 40 30.22 40 28V4C40 1.78 38.22 0 36 0ZM36 28H4V16H36V28ZM36 8H4V4H36V8Z"
    ></path>
  </symbol>
  <symbol xmlns="http://www.w3.org/2000/svg" viewBox="0 0 32 32" id="cross">
    <path
      d="M32 5.82L26.18 0L16 10.18L5.82 0L0 5.82L10.18 16L0 26.18L5.82 32L16 21.82L26.18 32L32 26.18L21.82 16L32 5.82Z"
    ></path>
  </symbol>
  <symbol xmlns="http://www.w3.org/2000/svg" viewBox="0 0 37 37" id="cutlery">
    <path
      d="M8.02648 0.00167983C6.07383 -0.0386674 4.17603 0.649039 2.70252 1.93093C1.229 3.21282 0.285224 4.99715 0.054897 6.93659C-0.17543 8.87603 0.324178 10.8318 1.45646 12.4231C2.58875 14.0145 4.27269 15.1276 6.18048 15.5457L4.85648 33.7557C4.86031 34.0715 4.92961 34.3831 5.05998 34.6707C5.19034 34.9584 5.37896 35.2159 5.6139 35.427C5.84884 35.638 6.125 35.7981 6.42494 35.897C6.72487 35.9959 7.04207 36.0316 7.35648 36.0017H8.69048C9.00536 36.0325 9.3232 35.9975 9.62386 35.899C9.92451 35.8004 10.2014 35.6405 10.437 35.4294C10.6726 35.2182 10.8618 34.9604 10.9925 34.6723C11.1233 34.3842 11.1927 34.072 11.1965 33.7557L9.87248 15.5457C11.7736 15.1213 13.4496 14.0065 14.5757 12.4172C15.7019 10.8278 16.1982 8.87709 15.9684 6.9428C15.7386 5.0085 14.7991 3.22834 13.3318 1.94711C11.8646 0.66588 9.97409 -0.025218 8.02648 0.00767987V0.00167983ZM34.9145 0.00167983L32.6925 11.2517H31.0265L29.9145 0.00167983H28.8025L27.6905 11.2517H26.0245L23.8045 0.00167983H22.6925V14.6277C22.722 14.9531 22.8786 15.2538 23.1283 15.4646C23.378 15.6753 23.7007 15.7792 24.0265 15.7537H27.4985L26.1885 33.7537C26.1923 34.0699 26.2617 34.3818 26.3923 34.6698C26.5229 34.9577 26.7119 35.2154 26.9473 35.4266C27.1826 35.6377 27.4593 35.7977 27.7597 35.8963C28.0601 35.995 28.3778 36.0302 28.6925 35.9997H30.0265C30.3412 36.0302 30.6588 35.995 30.9592 35.8963C31.2597 35.7977 31.5363 35.6377 31.7717 35.4266C32.0071 35.2154 32.1961 34.9577 32.3267 34.6698C32.4573 34.3818 32.5267 34.0699 32.5305 33.7537L31.2205 15.7537H34.6925C35.0179 15.7792 35.3404 15.6756 35.59 15.4653C35.8397 15.2549 35.9965 14.9548 36.0265 14.6297V0.00167983H34.9145Z"
    ></path>
  </symbol>
  <symbol xmlns="http://www.w3.org/2000/svg" viewBox="0 0 40 32" id="envelope">
    <path
      d="M36 0H4C1.8 0 0.02 1.8 0.02 4L0 28C0 30.2 1.8 32 4 32H36C38.2 32 40 30.2 40 28V4C40 1.8 38.2 0 36 0ZM36 8L20 18L4 8V4L20 14L36 4V8Z"
    ></path>
  </symbol>
  <symbol xmlns="http://www.w3.org/2000/svg" viewBox="0 0 41 40" id="gear">
    <path
      d="M40.4266 16.9602L35.96 15.6269C35.6511 14.5486 35.2264 13.507 34.6933 12.5202L36.88 8.42687C36.962 8.27236 36.9921 8.09552 36.9656 7.92258C36.9392 7.74964 36.8577 7.58983 36.7333 7.46687L33.5466 4.26687C33.4237 4.14243 33.2639 4.06095 33.0909 4.03453C32.918 4.00811 32.7411 4.03815 32.5866 4.1202L28.52 6.29354C27.5234 5.73442 26.4681 5.28725 25.3733 4.9602L24.04 0.546871C23.9836 0.384226 23.877 0.243669 23.7356 0.145433C23.5943 0.0471971 23.4254 -0.00365232 23.2533 0.000204225H18.7466C18.5735 0.00101032 18.4051 0.0570503 18.266 0.160168C18.1269 0.263287 18.0244 0.408102 17.9733 0.573538L16.64 4.97354C15.536 5.29884 14.4716 5.74604 13.4666 6.30687L9.46663 4.14687C9.31212 4.06482 9.13527 4.03478 8.96234 4.0612C8.7894 4.08762 8.62959 4.1691 8.50663 4.29354L5.26663 7.45354C5.14219 7.5765 5.06071 7.73631 5.03429 7.90924C5.00787 8.08218 5.03791 8.25903 5.11996 8.41354L7.27996 12.4135C6.72004 13.4143 6.27286 14.4741 5.94663 15.5735L1.53329 16.9069C1.36786 16.958 1.22304 17.0605 1.11993 17.1996C1.01681 17.3387 0.960767 17.5071 0.959961 17.6802V22.1869C0.960767 22.36 1.01681 22.5284 1.11993 22.6675C1.22304 22.8066 1.36786 22.9091 1.53329 22.9602L5.97329 24.2935C6.30309 25.3746 6.7502 26.4164 7.30663 27.4002L5.11996 31.5869C5.03791 31.7414 5.00787 31.9182 5.03429 32.0912C5.06071 32.2641 5.14219 32.4239 5.26663 32.5469L8.45329 35.7335C8.57626 35.858 8.73607 35.9395 8.909 35.9659C9.08194 35.9923 9.25879 35.9622 9.41329 35.8802L13.5333 33.6802C14.5079 34.2061 15.536 34.6263 16.6 34.9335L17.9333 39.4269C17.9844 39.5923 18.0869 39.7371 18.226 39.8402C18.3651 39.9434 18.5335 39.9994 18.7066 40.0002H23.2133C23.3864 39.9994 23.5548 39.9434 23.6939 39.8402C23.833 39.7371 23.9355 39.5923 23.9866 39.4269L25.32 34.9202C26.3749 34.6113 27.3939 34.1912 28.36 33.6669L32.5066 35.8802C32.6611 35.9622 32.838 35.9923 33.0109 35.9659C33.1839 35.9395 33.3437 35.858 33.4666 35.7335L36.6533 32.5469C36.7777 32.4239 36.8592 32.2641 36.8856 32.0912C36.9121 31.9182 36.882 31.7414 36.8 31.5869L34.5866 27.4535C35.1164 26.4838 35.5411 25.4602 35.8533 24.4002L40.3466 23.0669C40.5121 23.0158 40.6569 22.9132 40.76 22.7741C40.8631 22.635 40.9192 22.4667 40.92 22.2935V17.7469C40.9278 17.5811 40.8848 17.4168 40.7966 17.2762C40.7084 17.1356 40.5793 17.0253 40.4266 16.9602ZM21 27.3335C19.5496 27.3335 18.1317 26.9034 16.9258 26.0976C15.7198 25.2918 14.7799 24.1465 14.2248 22.8065C13.6698 21.4666 13.5246 19.9921 13.8075 18.5695C14.0905 17.147 14.7889 15.8403 15.8145 14.8148C16.8401 13.7892 18.1468 13.0907 19.5693 12.8078C20.9918 12.5248 22.4663 12.67 23.8063 13.2251C25.1463 13.7801 26.2916 14.7201 27.0974 15.926C27.9032 17.132 28.3333 18.5498 28.3333 20.0002C28.3333 21.9451 27.5607 23.8104 26.1854 25.1857C24.8101 26.5609 22.9449 27.3335 21 27.3335Z"
    ></path>
  </symbol>
  <symbol xmlns="http://www.w3.org/2000/svg" viewBox="0 0 40 40" id="house">
    <path
      d="M40.0005 16.0002L20.0005 0.000244141L0.000488281 16.0002V20.0002H4.00049V40.0002H14.0005V32.0002C14.0005 30.4089 14.6326 28.8828 15.7578 27.7576C16.8831 26.6324 18.4092 26.0002 20.0005 26.0002C21.5918 26.0002 23.1179 26.6324 24.2431 27.7576C25.3683 28.8828 26.0005 30.4089 26.0005 32.0002V40.0002H36.0005V20.0002H40.0005V16.0002Z"
    ></path>
  </symbol>
  <symbol xmlns="http://www.w3.org/2000/svg" viewBox="0 0 39 32" id="list">
    <path
      d="M6.00006 24.038H1.20006C1.04146 24.038 0.88443 24.0694 0.738051 24.1305C0.591673 24.1915 0.458849 24.281 0.347261 24.3937C0.235672 24.5064 0.147532 24.6401 0.0879372 24.7871C0.028342 24.9341 -0.001526 25.0914 6.00064e-05 25.25V30.05C6.00064e-05 30.3683 0.126488 30.6735 0.351532 30.8985C0.576576 31.1236 0.8818 31.25 1.20006 31.25H6.00006C6.31832 31.25 6.62354 31.1236 6.84859 30.8985C7.07363 30.6735 7.20006 30.3683 7.20006 30.05V25.25C7.20165 25.0914 7.17178 24.9341 7.11218 24.7871C7.05259 24.6401 6.96445 24.5064 6.85286 24.3937C6.74127 24.281 6.60845 24.1915 6.46207 24.1305C6.31569 24.0694 6.15866 24.038 6.00006 24.038ZM6.00006 0H1.20006C0.8818 0 0.576576 0.126428 0.351532 0.351472C0.126488 0.576516 6.00064e-05 0.88174 6.00064e-05 1.2V6C6.00064e-05 6.31826 0.126488 6.62348 0.351532 6.84853C0.576576 7.07357 0.8818 7.2 1.20006 7.2H6.00006C6.31832 7.2 6.62354 7.07357 6.84859 6.84853C7.07363 6.62348 7.20006 6.31826 7.20006 6V1.2C7.20006 0.88174 7.07363 0.576516 6.84859 0.351472C6.62354 0.126428 6.31832 0 6.00006 0ZM6.00006 12.02H1.20006C0.8818 12.02 0.576576 12.1464 0.351532 12.3715C0.126488 12.5965 6.00064e-05 12.9017 6.00064e-05 13.22V18.02C6.00064e-05 18.3383 0.126488 18.6435 0.351532 18.8685C0.576576 19.0936 0.8818 19.22 1.20006 19.22H6.00006C6.31832 19.22 6.62354 19.0936 6.84859 18.8685C7.07363 18.6435 7.20006 18.3383 7.20006 18.02V13.22C7.20006 12.9017 7.07363 12.5965 6.84859 12.3715C6.62354 12.1464 6.31832 12.02 6.00006 12.02ZM37.2601 25.25H13.2221C12.9038 25.25 12.5986 25.3764 12.3735 25.6015C12.1485 25.8265 12.0221 26.1317 12.0221 26.45V28.85C12.0221 29.0076 12.0531 29.1636 12.1134 29.3092C12.1737 29.4548 12.2621 29.5871 12.3735 29.6985C12.485 29.81 12.6172 29.8983 12.7628 29.9587C12.9084 30.019 13.0645 30.05 13.2221 30.05H37.2601C37.4176 30.05 37.5737 30.019 37.7193 29.9587C37.8649 29.8983 37.9972 29.81 38.1086 29.6985C38.22 29.5871 38.3084 29.4548 38.3687 29.3092C38.429 29.1636 38.4601 29.0076 38.4601 28.85V26.45C38.4601 26.2924 38.429 26.1364 38.3687 25.9908C38.3084 25.8452 38.22 25.7129 38.1086 25.6015C37.9972 25.49 37.8649 25.4016 37.7193 25.3413C37.5737 25.281 37.4176 25.25 37.2601 25.25ZM37.2601 1.212H13.2221C12.9038 1.212 12.5986 1.33843 12.3735 1.56347C12.1485 1.78852 12.0221 2.09374 12.0221 2.412V4.812C12.0221 5.13026 12.1485 5.43548 12.3735 5.66053C12.5986 5.88557 12.9038 6.012 13.2221 6.012H37.2601C37.4176 6.012 37.5737 5.98096 37.7193 5.92066C37.8649 5.86035 37.9972 5.77196 38.1086 5.66053C38.22 5.5491 38.3084 5.41681 38.3687 5.27122C38.429 5.12563 38.4601 4.96959 38.4601 4.812V2.412C38.4614 2.25357 38.4313 2.09645 38.3716 1.94971C38.3119 1.80296 38.2237 1.66949 38.1121 1.557C38.0006 1.44451 37.8679 1.35522 37.7216 1.29429C37.5754 1.23336 37.4185 1.20199 37.2601 1.202V1.212ZM37.2601 13.232H13.2221C12.9038 13.232 12.5986 13.3584 12.3735 13.5835C12.1485 13.8085 12.0221 14.1137 12.0221 14.432V16.832C12.0221 17.1503 12.1485 17.4555 12.3735 17.6805C12.5986 17.9056 12.9038 18.032 13.2221 18.032H37.2601C37.4176 18.032 37.5737 18.001 37.7193 17.9407C37.8649 17.8803 37.9972 17.792 38.1086 17.6805C38.22 17.5691 38.3084 17.4368 38.3687 17.2912C38.429 17.1456 38.4601 16.9896 38.4601 16.832V14.432C38.4614 14.2736 38.4313 14.1165 38.3716 13.9697C38.3119 13.823 38.2237 13.6895 38.1121 13.577C38.0006 13.4645 37.8679 13.3752 37.7216 13.3143C37.5754 13.2534 37.4185 13.222 37.2601 13.222V13.232Z"
    ></path>
  </symbol>

  <symbol
    viewBox="0 0 43 32"
    id="list-horizontal"
  >
    <path
      d="M-0.00195312 13.3333H31.998V18.6667H-0.00195312V13.3333ZM-0.00195312 0H42.6647V5.33333H-0.00195312V0ZM-0.00195312 32H19.2914V26.6667H-0.00195312V32Z"
    ></path>
  </symbol>
  <symbol xmlns="http://www.w3.org/2000/svg" viewBox="0 0 28 40" id="location">
    <path
      d="M14 19C12.6739 19 11.4021 18.4732 10.4645 17.5355C9.52678 16.5979 9 15.3261 9 14C9 12.6739 9.52678 11.4021 10.4645 10.4645C11.4021 9.52678 12.6739 9 14 9C15.3261 9 16.5979 9.52678 17.5355 10.4645C18.4732 11.4021 19 12.6739 19 14C19 14.6566 18.8707 15.3068 18.6194 15.9134C18.3681 16.52 17.9998 17.0712 17.5355 17.5355C17.0712 17.9998 16.52 18.3681 15.9134 18.6194C15.3068 18.8707 14.6566 19 14 19ZM14 0C10.287 0 6.72601 1.475 4.1005 4.1005C1.475 6.72601 0 10.287 0 14C0 24.5 14 40 14 40C14 40 28 24.5 28 14C28 10.287 26.525 6.72601 23.8995 4.1005C21.274 1.475 17.713 0 14 0Z"
    ></path>
  </symbol>

  <symbol
    
    viewBox="0 0 37 37"
    id="magnifying-glass"
  >
    <path
      d="M35.42 32.58L28.62 25.8C30.814 23.0049 32.0044 19.5533 32 16C32 12.8355 31.0616 9.74207 29.3035 7.11088C27.5454 4.4797 25.0466 2.42894 22.1229 1.21793C19.1993 0.0069325 15.9823 -0.309921 12.8786 0.307443C9.77487 0.924806 6.92394 2.44866 4.6863 4.6863C2.44866 6.92394 0.924806 9.77487 0.307443 12.8786C-0.309921 15.9823 0.0069325 19.1993 1.21793 22.1229C2.42894 25.0466 4.4797 27.5454 7.11088 29.3035C9.74207 31.0616 12.8355 32 16 32C19.5533 32.0044 23.0049 30.814 25.8 28.62L32.58 35.42C32.7659 35.6075 32.9871 35.7563 33.2309 35.8578C33.4746 35.9593 33.736 36.0116 34 36.0116C34.264 36.0116 34.5254 35.9593 34.7692 35.8578C35.0129 35.7563 35.2341 35.6075 35.42 35.42C35.6075 35.2341 35.7563 35.0129 35.8578 34.7692C35.9593 34.5254 36.0116 34.264 36.0116 34C36.0116 33.736 35.9593 33.4746 35.8578 33.2309C35.7563 32.9871 35.6075 32.7659 35.42 32.58ZM4.00001 16C4.00001 13.6266 4.70379 11.3066 6.02237 9.33317C7.34095 7.35978 9.21509 5.8217 11.4078 4.91345C13.6005 4.0052 16.0133 3.76756 18.3411 4.23058C20.6689 4.69361 22.8071 5.8365 24.4853 7.51473C26.1635 9.19296 27.3064 11.3312 27.7694 13.6589C28.2325 15.9867 27.9948 18.3995 27.0866 20.5922C26.1783 22.7849 24.6402 24.6591 22.6669 25.9776C20.6935 27.2962 18.3734 28 16 28C12.8174 28 9.76516 26.7357 7.51473 24.4853C5.26429 22.2349 4.00001 19.1826 4.00001 16Z"
    ></path>
  </symbol>
  <symbol xmlns="http://www.w3.org/2000/svg" viewBox="0 0 40 40" id="message">
    <path
      clip-rule="evenodd"
      d="M21.884 24.826L16.764 19.506L6.9 24.96L17.712 13.488L22.832 18.808L32.692 13.354L21.882 24.826H21.884ZM19.798 0C8.864 0 0 8.288 0 18.514C0 24.33 2.868 29.52 7.356 32.914V40L14.112 36.252C15.912 36.756 17.822 37.028 19.798 37.028C30.734 37.028 39.598 28.738 39.598 18.514C39.598 8.288 30.734 0 19.798 0Z"
    ></path>
  </symbol>
  <symbol xmlns="http://www.w3.org/2000/svg" viewBox="0 0 42 42" id="minus">
    <path
      d="M21 0C9.40313 0 0 9.40313 0 21C0 32.5969 9.40313 42 21 42C32.5969 42 42 32.5969 42 21C42 9.40313 32.5969 0 21 0ZM30 22.125C30 22.3312 29.8312 22.5 29.625 22.5H12.375C12.1687 22.5 12 22.3312 12 22.125V19.875C12 19.6688 12.1687 19.5 12.375 19.5H29.625C29.8312 19.5 30 19.6688 30 19.875V22.125Z"
    ></path>
  </symbol>
  <symbol xmlns="http://www.w3.org/2000/svg" viewBox="0 0 32 42" id="padlock">
    <path
      d="M28 14H26V10C26 4.48 21.52 0 16 0C10.48 0 6 4.48 6 10V14H4C1.8 14 0 15.8 0 18V38C0 40.2 1.8 42 4 42H28C30.2 42 32 40.2 32 38V18C32 15.8 30.2 14 28 14ZM16 32C13.8 32 12 30.2 12 28C12 25.8 13.8 24 16 24C18.2 24 20 25.8 20 28C20 30.2 18.2 32 16 32ZM22.2 14H9.8V10C9.8 6.58 12.58 3.8 16 3.8C19.42 3.8 22.2 6.58 22.2 10V14Z"
    ></path>
  </symbol>
  <symbol xmlns="http://www.w3.org/2000/svg" viewBox="0 0 40 40" id="percent">
    <path
      clip-rule="evenodd"
      d="M34.0112 19.9753L36.5866 15.5242L32.1348 12.951V7.81994H27.0054L24.4333 3.36829L19.9781 5.94343L15.5239 3.36655L12.9498 7.81994H7.82078V12.949L3.36807 15.5227L5.94478 19.9759L3.36757 24.43L7.81878 27.0029V32.1319H12.9498L15.5236 36.5846L19.976 34.0084L24.4319 36.584L27.0029 32.1319H32.1328V27.0029L36.5858 24.429L34.0112 19.9753ZM23.7968 39.6819L19.9768 37.4739L16.1608 39.6819C15.8528 39.8599 15.5068 39.9519 15.1588 39.9519C14.8081 39.9499 14.464 39.8567 14.1603 39.6813C13.8567 39.506 13.6038 39.2546 13.4268 38.9519L11.2188 35.1319H6.81878C6.28835 35.1319 5.77964 34.9212 5.40457 34.5462C5.02949 34.1711 4.81878 33.6624 4.81878 33.1319V28.7339L0.998781 26.5259C0.54119 26.2585 0.207871 25.8211 0.0714978 25.3089C-0.0648751 24.7968 0.00675851 24.2515 0.270781 23.7919L2.47878 19.9759L0.270781 16.1599C0.138539 15.9327 0.0525087 15.6815 0.0176333 15.4209C-0.017242 15.1602 -0.00027518 14.8953 0.0675591 14.6412C0.135393 14.3872 0.252758 14.149 0.41291 13.9405C0.573063 13.7319 0.772845 13.5571 1.00078 13.4259L4.82078 11.2179V6.81994C4.82078 6.28951 5.0315 5.7808 5.40657 5.40573C5.78164 5.03066 6.29035 4.81994 6.82078 4.81994H11.2188L13.4268 0.999945C13.692 0.540599 14.1288 0.205423 14.6412 0.0681468C15.1535 -0.0691288 15.6994 0.00274035 16.1588 0.267945L19.9788 2.47794L23.7988 0.269945C24.026 0.13782 24.2772 0.0521077 24.5377 0.0177762C24.7983 -0.0165554 25.0631 0.00117678 25.3168 0.069945C25.8282 0.208956 26.2644 0.543778 26.5308 1.00195L28.7368 4.81994H33.1348C33.6652 4.81994 34.1739 5.03066 34.549 5.40573C34.9241 5.7808 35.1348 6.28951 35.1348 6.81994V11.2199L38.9548 13.4279C39.4138 13.6935 39.7485 14.1305 39.8854 14.6428C40.0223 15.1551 39.9502 15.7008 39.6848 16.1599L37.4768 19.9759L39.6828 23.7919C39.8145 24.0194 39.9001 24.2705 39.9347 24.531C39.9693 24.7915 39.9522 25.0563 39.8844 25.3102C39.8166 25.5641 39.6994 25.8022 39.5396 26.0108C39.3797 26.2194 39.1803 26.3944 38.9528 26.5259L35.1328 28.7339V33.1319C35.1328 33.6624 34.9221 34.1711 34.547 34.5462C34.1719 34.9212 33.6632 35.1319 33.1328 35.1319H28.7348L26.5288 38.9519C26.2628 39.4105 25.8259 39.7449 25.3137 39.8818C24.8015 40.0186 24.256 39.9468 23.7968 39.6819Z"
    ></path>
    <path
      clip-rule="evenodd"
      d="M14.9768 9.95594C15.7727 9.95621 16.5359 10.2726 17.0985 10.8356C17.6611 11.3986 17.977 12.162 17.9768 12.9579C17.9765 13.7539 17.6601 14.5171 17.0971 15.0797C16.5341 15.6423 15.7707 15.9582 14.9748 15.9579C14.1789 15.9577 13.4157 15.6412 12.853 15.0783C12.2904 14.5153 11.9745 13.7519 11.9748 12.9559C11.975 12.16 12.2915 11.3968 12.8545 10.8342C13.4174 10.2716 14.1809 9.95568 14.9768 9.95594ZM15.5768 29.1559L12.3768 26.7579L24.3768 10.7579L27.5768 13.1559L15.5768 29.1559ZM24.9768 29.9559C24.5827 29.9558 24.1925 29.8781 23.8284 29.7271C23.4644 29.5762 23.1336 29.355 22.855 29.0763C22.5765 28.7975 22.3555 28.4666 22.2048 28.1025C22.0541 27.7383 21.9766 27.348 21.9768 26.9539C21.9769 26.5598 22.0547 26.1696 22.2056 25.8056C22.3565 25.4415 22.5777 25.1108 22.8565 24.8322C23.1352 24.5536 23.4661 24.3327 23.8303 24.182C24.1944 24.0313 24.5847 23.9538 24.9788 23.9539C25.7747 23.9542 26.5379 24.2706 27.1005 24.8336C27.6631 25.3966 27.979 26.16 27.9788 26.9559C27.9785 27.7519 27.6621 28.5151 27.0991 29.0777C26.5361 29.6403 25.7727 29.9562 24.9768 29.9559Z"
    ></path>
  </symbol>

  <symbol
    viewBox="0 0 40 32"
    id="percent-circle"
  >
    <path
      d="M4 0C2.93913 0 1.92172 0.421427 1.17157 1.17157C0.421427 1.92172 0 2.93913 0 4V12C1.06087 12 2.07828 12.4214 2.82843 13.1716C3.57857 13.9217 4 14.9391 4 16C4 17.0609 3.57857 18.0783 2.82843 18.8284C2.07828 19.5786 1.06087 20 0 20V28C0 29.0609 0.421427 30.0783 1.17157 30.8284C1.92172 31.5786 2.93913 32 4 32H36C37.0609 32 38.0783 31.5786 38.8284 30.8284C39.5786 30.0783 40 29.0609 40 28V20C38.9391 20 37.9217 19.5786 37.1716 18.8284C36.4214 18.0783 36 17.0609 36 16C36 14.9391 36.4214 13.9217 37.1716 13.1716C37.9217 12.4214 38.9391 12 40 12V4C40 2.93913 39.5786 1.92172 38.8284 1.17157C38.0783 0.421427 37.0609 0 36 0H4ZM27 6L30 9L13 26L10 23L27 6ZM13.62 6.08C15.58 6.08 17.16 7.66 17.16 9.62C17.16 10.5589 16.787 11.4593 16.1232 12.1232C15.4593 12.787 14.5589 13.16 13.62 13.16C11.66 13.16 10.08 11.58 10.08 9.62C10.08 8.68113 10.453 7.78072 11.1168 7.11684C11.7807 6.45296 12.6811 6.08 13.62 6.08ZM26.38 18.84C28.34 18.84 29.92 20.42 29.92 22.38C29.92 23.3189 29.547 24.2193 28.8832 24.8832C28.2193 25.547 27.3189 25.92 26.38 25.92C24.42 25.92 22.84 24.34 22.84 22.38C22.84 21.4411 23.213 20.5407 23.8768 19.8768C24.5407 19.213 25.4411 18.84 26.38 18.84Z"
    ></path>
  </symbol>
  <symbol xmlns="http://www.w3.org/2000/svg" viewBox="0 0 36 36" id="phone">
    <path
      d="M34.9733 25.4389L27.0982 22.0638C26.7618 21.9204 26.3879 21.8902 26.0328 21.9777C25.6777 22.0652 25.3607 22.2657 25.1294 22.549L21.6419 26.81C16.1685 24.2293 11.7636 19.8245 9.18297 14.3511L13.444 10.8635C13.7278 10.6327 13.9287 10.3156 14.0163 9.96039C14.1038 9.60515 14.0732 9.23106 13.9291 8.89475L10.5541 1.01961C10.396 0.657083 10.1163 0.361088 9.76331 0.182669C9.41032 0.00425057 9.00614 -0.0454089 8.62046 0.0422538L1.30784 1.72978C0.935995 1.81565 0.604237 2.02502 0.366711 2.32371C0.129184 2.62241 -8.56569e-05 2.9928 4.25834e-08 3.37442C4.25834e-08 21.4099 14.6182 36 32.6256 36C33.0073 36.0002 33.3779 35.871 33.6767 35.6335C33.9755 35.396 34.185 35.0641 34.2709 34.6922L35.9584 27.3795C36.0455 26.992 35.9948 26.5862 35.815 26.232C35.6352 25.8778 35.3376 25.5973 34.9733 25.4389Z"
    ></path>
  </symbol>
  <symbol xmlns="http://www.w3.org/2000/svg" viewBox="0 0 42 42" id="plus">
    <path
      d="M21 0C9.40313 0 0 9.40313 0 21C0 32.5969 9.40313 42 21 42C32.5969 42 42 32.5969 42 21C42 9.40313 32.5969 0 21 0ZM30 22.125C30 22.3312 29.8312 22.5 29.625 22.5H22.5V29.625C22.5 29.8312 22.3312 30 22.125 30H19.875C19.6688 30 19.5 29.8312 19.5 29.625V22.5H12.375C12.1687 22.5 12 22.3312 12 22.125V19.875C12 19.6688 12.1687 19.5 12.375 19.5H19.5V12.375C19.5 12.1687 19.6688 12 19.875 12H22.125C22.3312 12 22.5 12.1687 22.5 12.375V19.5H29.625C29.8312 19.5 30 19.6688 30 19.875V22.125Z"
    ></path>
  </symbol>

  <symbol
    viewBox="0 0 32 32"
    id="search-plus"
  >
    <path
      d="M18.9939 11.9936V13.9937C18.9935 14.1925 18.9143 14.3831 18.7736 14.5237C18.633 14.6643 18.4424 14.7435 18.2436 14.7439H14.7478V18.2445C14.7473 18.4434 14.6681 18.6339 14.5275 18.7745C14.3869 18.9151 14.1963 18.9943 13.9974 18.9948H11.9917C11.7928 18.9943 11.6023 18.9151 11.4616 18.7745C11.321 18.6339 11.2418 18.4434 11.2413 18.2445V14.7493H7.74201C7.54314 14.7488 7.35256 14.6696 7.21194 14.529C7.07132 14.3884 6.99211 14.1978 6.99164 13.999V11.9936C6.99211 11.7947 7.07132 11.6042 7.21194 11.4636C7.35256 11.323 7.54314 11.2438 7.74201 11.2433H11.2413V7.74447C11.2418 7.54563 11.321 7.35507 11.4616 7.21447C11.6023 7.07387 11.7928 6.99468 11.9917 6.99421H13.9921C14.091 6.99374 14.1891 7.01279 14.2806 7.05026C14.3722 7.08773 14.4554 7.14289 14.5256 7.21259C14.5958 7.28228 14.6516 7.36513 14.6897 7.4564C14.7278 7.54767 14.7476 7.64556 14.7478 7.74447V11.2433H18.2489C18.4468 11.2452 18.6361 11.325 18.7755 11.4654C18.915 11.6059 18.9935 11.7956 18.9939 11.9936ZM31.5599 29.79L29.7907 31.559C29.6518 31.6987 29.4867 31.8097 29.3048 31.8853C29.123 31.961 28.9279 32 28.7309 32C28.5339 32 28.3388 31.961 28.157 31.8853C27.9751 31.8097 27.81 31.6987 27.6711 31.559L21.4317 25.3276C21.292 25.1874 21.1814 25.021 21.1063 24.8379C21.0313 24.6548 20.9932 24.4587 20.9943 24.2608V23.2421C18.3854 25.2777 15.0981 26.2416 11.8029 25.9373C8.50766 25.6331 5.45256 24.0836 3.26052 21.6048C1.06848 19.126 -0.0954259 15.9046 0.00612773 12.5974C0.107681 9.29014 1.46704 6.14617 3.80704 3.8065C6.14704 1.46684 9.29146 0.107666 12.5992 0.00612686C15.9069 -0.0954124 19.1287 1.06832 21.6079 3.26006C24.087 5.45179 25.6367 8.50646 25.941 11.8012C26.2453 15.096 25.2812 18.3828 23.2454 20.9913H24.2643C24.4622 20.9902 24.6583 21.0283 24.8414 21.1033C25.0246 21.1784 25.191 21.289 25.3311 21.4287L31.5634 27.6601C31.8438 27.9439 32.0007 28.3269 32 28.7258C31.9993 29.1247 31.8412 29.5071 31.5599 29.79ZM21.4957 12.9945C21.4957 11.3134 20.9972 9.66998 20.063 8.27217C19.1289 6.87436 17.8012 5.78489 16.2478 5.14155C14.6944 4.49821 12.9851 4.32988 11.3361 4.65785C9.687 4.98583 8.17224 5.79537 6.98332 6.98411C5.79441 8.17286 4.98476 9.68741 4.65673 11.3362C4.32872 12.9851 4.49707 14.6941 5.1405 16.2473C5.78394 17.8005 6.87355 19.128 8.27156 20.062C9.66957 20.996 11.3132 21.4945 12.9946 21.4945C14.1111 21.4952 15.2168 21.2758 16.2484 20.8488C17.28 20.4219 18.2173 19.7958 19.0067 19.0063C19.7961 18.2169 20.4221 17.2796 20.8489 16.248C21.2757 15.2164 21.4949 14.1108 21.494 12.9945H21.4957Z"
    ></path>
  </symbol>

  <symbol
    viewBox="0 0 36 36"
    id="square-right"
  >
    <path
      d="M14.18 25.18L17 28L27 18L17 8L14.18 10.82L19.34 16H0V20H19.34L14.18 25.18ZM32 0H4C2.93913 0 1.92172 0.421427 1.17157 1.17157C0.421427 1.92172 0 2.93913 0 4V12H4V4H32V32H4V24H0V32C0 33.0609 0.421427 34.0783 1.17157 34.8284C1.92172 35.5786 2.93913 36 4 36H32C34.2 36 36 34.2 36 32V4C36 1.8 34.2 0 32 0Z"
    ></path>
  </symbol>
  <symbol xmlns="http://www.w3.org/2000/svg" viewBox="0 0 40 38" id="star">
    <path
      d="M31.12 37.9997C30.8002 38.001 30.4847 37.9255 30.2 37.7797L20 32.4397L9.80001 37.7797C9.4688 37.9538 9.09537 38.0316 8.72217 38.0041C8.34897 37.9766 7.99097 37.8449 7.68887 37.6241C7.38677 37.4032 7.15269 37.1021 7.01324 36.7548C6.87379 36.4075 6.83456 36.0281 6.90001 35.6597L8.90001 24.3997L0.660013 16.3997C0.402929 16.1431 0.220557 15.8214 0.132469 15.4691C0.0443813 15.1167 0.0539034 14.747 0.160013 14.3997C0.275933 14.0442 0.489166 13.7284 0.775514 13.488C1.06186 13.2476 1.40986 13.0923 1.78001 13.0397L13.18 11.3797L18.2 1.11968C18.3638 0.781533 18.6195 0.49636 18.9378 0.296823C19.2562 0.0972855 19.6243 -0.00854492 20 -0.00854492C20.3757 -0.00854492 20.7438 0.0972855 21.0622 0.296823C21.3805 0.49636 21.6362 0.781533 21.8 1.11968L26.88 11.3597L38.28 13.0197C38.6502 13.0723 38.9982 13.2276 39.2845 13.468C39.5709 13.7084 39.7841 14.0242 39.9 14.3797C40.0061 14.727 40.0156 15.0967 39.9276 15.4491C39.8395 15.8014 39.6571 16.1231 39.4 16.3797L31.16 24.3797L33.16 35.6397C33.2314 36.0146 33.194 36.4022 33.0523 36.7566C32.9105 37.111 32.6703 37.4174 32.36 37.6397C31.9978 37.8935 31.5618 38.0201 31.12 37.9997Z"
    ></path>
  </symbol>
  <symbol xmlns="http://www.w3.org/2000/svg" viewBox="0 0 43 37" id="stopwatch">
    <path
      d="M27.1579 33.4762C23.89 33.4762 20.7559 32.1768 18.4452 29.8638C16.1344 27.5509 14.8363 24.4139 14.8363 21.1429C14.8363 17.8719 16.1344 14.7348 18.4452 12.4219C20.7559 10.1089 23.89 8.80952 27.1579 8.80952C30.4258 8.80952 33.5599 10.1089 35.8706 12.4219C38.1814 14.7348 39.4795 17.8719 39.4795 21.1429C39.4795 24.4139 38.1814 27.5509 35.8706 29.8638C33.5599 32.1768 30.4258 33.4762 27.1579 33.4762ZM39.5323 11.2586L42.0319 8.75667C41.2398 7.85809 40.4477 7.04762 39.5499 6.27238L37.0504 8.80952C34.322 6.58952 30.8896 5.28571 27.1579 5.28571C22.9563 5.28571 18.9268 6.95637 15.9558 9.93016C12.9849 12.904 11.3158 16.9373 11.3158 21.1429C11.3158 25.3484 12.9849 29.3818 15.9558 32.3555C18.9268 35.3293 22.9563 37 27.1579 37C35.9591 37 43 29.8995 43 21.1429C43 17.4076 41.6974 13.9719 39.5323 11.2586ZM25.3977 22.9048H28.9181V12.3333H25.3977V22.9048ZM32.4386 0H21.8772V3.52381H32.4386V0Z"
    ></path>
    <path d="M4.82787 24.8168H9.65594V28.4413H4.82787V24.8168Z"></path>
    <path d="M2.41443 12.7352H9.65653V16.3597H2.41443V12.7352Z"></path>
    <path d="M0 18.7763H8.44912V22.4008H0V18.7763Z"></path>
  </symbol>
  <symbol xmlns="http://www.w3.org/2000/svg" viewBox="0 0 36 36" id="sun">
    <path
      d="M18.0044 11.2485C16.6691 11.2489 15.3638 11.6451 14.2536 12.387C13.1435 13.129 12.2784 14.1833 11.7676 15.4167C11.2569 16.6502 11.1234 18.0073 11.3842 19.3166C11.645 20.6258 12.2882 21.8283 13.2326 22.7721C14.177 23.716 15.3801 24.3586 16.6899 24.6189C17.9996 24.8792 19.3572 24.7454 20.5909 24.2345C21.8246 23.7235 22.879 22.8584 23.6209 21.7484C24.3627 20.6384 24.7587 19.3334 24.7587 17.9985C24.7555 16.2089 24.0428 14.4935 22.7768 13.2283C21.5107 11.9631 19.7946 11.2511 18.0044 11.2485ZM35.3362 16.9085L28.676 13.5845L31.0328 6.52447C31.1049 6.30993 31.1157 6.07953 31.0639 5.85919C31.0122 5.63885 30.8999 5.43733 30.7399 5.27729C30.5798 5.11725 30.3782 5.00505 30.1578 4.95332C29.9373 4.90159 29.7069 4.91238 29.4923 4.98447L22.4299 7.33847L19.0948 0.674471C18.9937 0.471845 18.8382 0.301394 18.6456 0.182253C18.453 0.0631129 18.2309 0 18.0044 0C17.7779 0 17.5559 0.0631129 17.3633 0.182253C17.1707 0.301394 17.0152 0.471845 16.9141 0.674471L13.589 7.33247L6.51863 4.97647C6.30402 4.90438 6.07354 4.89359 5.85313 4.94532C5.63272 4.99705 5.43113 5.10925 5.27104 5.26929C5.11095 5.42933 4.99871 5.63085 4.94696 5.85119C4.89521 6.07153 4.906 6.30193 4.97812 6.51647L7.3349 13.5765L0.674695 16.9085C0.472001 17.0095 0.301494 17.165 0.182314 17.3576C0.0631338 17.5501 0 17.772 0 17.9985C0 18.2249 0.0631338 18.4468 0.182314 18.6394C0.301494 18.8319 0.472001 18.9874 0.674695 19.0885L7.3349 22.4145L4.97812 29.4825C4.906 29.697 4.89521 29.9274 4.94696 30.1477C4.99871 30.3681 5.11095 30.5696 5.27104 30.7297C5.43113 30.8897 5.63272 31.0019 5.85313 31.0536C6.07354 31.1054 6.30402 31.0946 6.51863 31.0225L13.581 28.6665L16.9081 35.3245C17.0092 35.5271 17.1647 35.6975 17.3573 35.8167C17.5499 35.9358 17.7719 35.9989 17.9984 35.9989C18.2249 35.9989 18.4469 35.9358 18.6396 35.8167C18.8322 35.6975 18.9877 35.5271 19.0888 35.3245L22.4059 28.6665L29.4682 31.0225C29.6829 31.0946 29.9133 31.1054 30.1337 31.0536C30.3542 31.0019 30.5558 30.8897 30.7158 30.7297C30.8759 30.5696 30.9882 30.3681 31.0399 30.1477C31.0917 29.9274 31.0809 29.697 31.0088 29.4825L28.652 22.4225L35.3122 19.0965C35.5171 18.9974 35.6902 18.8428 35.8117 18.6504C35.9333 18.458 35.9985 18.2354 36 18.0078C36.0014 17.7803 35.9391 17.5568 35.82 17.3629C35.7009 17.1689 35.5298 17.0122 35.3262 16.9105L35.3362 16.9085ZM24.3706 24.3625C23.1115 25.6211 21.5073 26.4783 19.7609 26.8255C18.0145 27.1728 16.2043 26.9946 14.5592 26.3134C12.9141 25.6322 11.5081 24.4786 10.5188 22.9986C9.52955 21.5186 9.00154 19.7785 9.00154 17.9985C9.00154 16.2184 9.52955 14.4784 10.5188 12.9984C11.5081 11.5183 12.9141 10.3648 14.5592 9.68357C16.2043 9.00237 18.0145 8.82414 19.7609 9.1714C21.5073 9.51865 23.1115 10.3758 24.3706 11.6345C25.2066 12.4702 25.8697 13.4624 26.3222 14.5543C26.7746 15.6462 27.0075 16.8166 27.0075 17.9985C27.0075 19.1804 26.7746 20.3507 26.3222 21.4426C25.8697 22.5346 25.2066 23.5267 24.3706 24.3625Z"
    ></path>
  </symbol>

  <symbol
    viewBox="0 0 20 10"
    id="triangle-down"
  >
    <path d="M0 0L10 10L20 0H0Z"></path>
  </symbol>
  <symbol xmlns="http://www.w3.org/2000/svg" viewBox="0 0 40 40" id="user">
    <path
      d="M20 0C8.96 0 0 8.96 0 20C0 31.04 8.96 40 20 40C31.04 40 40 31.04 40 20C40 8.96 31.04 0 20 0ZM10.14 32.56C11 30.76 16.24 29 20 29C23.76 29 29.02 30.76 29.86 32.56C27.14 34.72 23.72 36 20 36C16.28 36 12.86 34.72 10.14 32.56ZM32.72 29.66C29.86 26.18 22.92 25 20 25C17.08 25 10.14 26.18 7.28 29.66C5.1553 26.8877 4.00261 23.4929 4 20C4 11.18 11.18 4 20 4C28.82 4 36 11.18 36 20C36 23.64 34.76 26.98 32.72 29.66ZM20 8C16.12 8 13 11.12 13 15C13 18.88 16.12 22 20 22C23.88 22 27 18.88 27 15C27 11.12 23.88 8 20 8ZM20 18C18.34 18 17 16.66 17 15C17 13.34 18.34 12 20 12C21.66 12 23 13.34 23 15C23 16.66 21.66 18 20 18Z"
    ></path>
  </symbol>

  <symbol  viewBox="0 0 32 32" id="mdi_chevron-right">
    <path d="M11.4535 9.89333L17.5602 16L11.4535 22.12L13.3335 24L21.3335 16L13.3335 8L11.4535 9.89333Z" ></path>
  </symbol>

  <symbol   viewBox="0 0 32 32" id="mdi_chevron-left">
    <path d="M20.5465 22.1067L14.4398 16L20.5465 9.88L18.6665 8L10.6665 16L18.6665 24L20.5465 22.1067Z" ></path>
  </symbol>
  
  <symbol fill="none"  viewBox="0 0 3 31" id="card-line">
    <path d="M0 3.09998L3 0L3 6.19998L0 3.09998Z" fill="#F68521"></path>
    <path d="M0 15.5L3 12.4V18.6L0 15.5Z" fill="#F68521"></path>
    <path d="M0 21.7L3 18.6V24.8L0 21.7Z" fill="#F68521"></path>
    <path d="M0 9.29998L3 6.19998V12.4L0 9.29998Z" fill="#F68521"></path>
    <path d="M0 27.9L3 24.8V31L0 27.9Z" fill="#F68521"></path>
  </symbol>

  <symbol id="instagram" viewBox="0 0 32 32" xmlns="http://www.w3.org/2000/svg">
<path d="M16 11.834c-2.294 0-4.166 1.872-4.166 4.166s1.872 4.166 4.166 4.166c2.294 0 4.166-1.872 4.166-4.166s-1.872-4.166-4.166-4.166zM28.494 16c0-1.725 0.016-3.434-0.081-5.156-0.097-2-0.553-3.775-2.016-5.238-1.466-1.466-3.238-1.919-5.238-2.016-1.725-0.097-3.434-0.081-5.156-0.081-1.725 0-3.434-0.016-5.156 0.081-2 0.097-3.775 0.553-5.238 2.016-1.466 1.466-1.919 3.237-2.016 5.238-0.097 1.725-0.081 3.434-0.081 5.156s-0.016 3.434 0.081 5.156c0.097 2 0.553 3.775 2.016 5.238 1.466 1.466 3.237 1.919 5.238 2.016 1.725 0.097 3.434 0.081 5.156 0.081 1.725 0 3.434 0.016 5.156-0.081 2-0.097 3.775-0.553 5.238-2.016 1.466-1.466 1.919-3.238 2.016-5.238 0.1-1.722 0.081-3.431 0.081-5.156zM16 22.409c-3.547 0-6.409-2.863-6.409-6.409s2.862-6.409 6.409-6.409 6.409 2.863 6.409 6.409c0 3.547-2.863 6.409-6.409 6.409zM22.672 10.825c-0.828 0-1.497-0.669-1.497-1.497s0.669-1.497 1.497-1.497c0.828 0 1.497 0.669 1.497 1.497 0 0.197-0.038 0.391-0.113 0.573s-0.185 0.347-0.324 0.486c-0.139 0.139-0.304 0.249-0.486 0.324s-0.377 0.114-0.573 0.113z"></path>
</symbol>
</svg>
