<svg xmlns="http://www.w3.org/2000/svg" width="44" height="28" fill="none" viewBox="0 0 44 28"><path fill="#000" d="M39.475 3.322q-1.569 0-2.584.951-1.015.937-1.312 2.733h5.181v2.358h-5.373l-.026.469v.63l.026.441h4.563v2.385h-4.345q.656 3.255 4.127 3.255a8.5 8.5 0 0 0 3.535-.764v3.43Q41.776 20 39.5 20q-3.15 0-5.18-1.782-2.032-1.78-2.559-4.93H30v-2.384h1.517a5 5 0 0 1-.051-.83l.025-.71H30V7.006h1.71q.476-3.242 2.558-5.117Q36.351-.001 39.475 0 41.892 0 44 1.098l-1.26 3.108a12 12 0 0 0-1.658-.643 5.4 5.4 0 0 0-1.607-.24M0 25.374c0 .696.316 1.364.878 1.856.563.493 1.326.77 2.121.77h22.002c.795 0 1.558-.277 2.12-.77.562-.491.879-1.158.879-1.854V10.5H0zm20.001-10.718c0-.173.08-.34.22-.463A.8.8 0 0 1 20.75 14h2.5a.8.8 0 0 1 .53.193c.14.123.22.29.22.463v2.188a.62.62 0 0 1-.22.463.8.8 0 0 1-.53.193h-2.5a.8.8 0 0 1-.53-.193.62.62 0 0 1-.22-.463zm0 7c0-.173.08-.34.22-.463a.8.8 0 0 1 .53-.193h2.5c.2 0 .39.07.53.193s.22.29.22.463v2.188a.62.62 0 0 1-.22.463.8.8 0 0 1-.53.193H20.75a.8.8 0 0 1-.53-.193.62.62 0 0 1-.22-.463zm-8-7c0-.174.08-.34.22-.463a.8.8 0 0 1 .53-.193h2.5a.8.8 0 0 1 .53.192.62.62 0 0 1 .22.463v2.187a.62.62 0 0 1-.22.464.8.8 0 0 1-.53.192h-2.5a.8.8 0 0 1-.53-.192.62.62 0 0 1-.22-.464zm0 7c0-.173.08-.34.22-.463a.8.8 0 0 1 .53-.193h2.5a.8.8 0 0 1 .53.192.62.62 0 0 1 .22.463v2.187a.62.62 0 0 1-.22.464.8.8 0 0 1-.53.192h-2.5a.8.8 0 0 1-.53-.192.62.62 0 0 1-.22-.464zm-8-7c0-.174.079-.34.22-.463A.8.8 0 0 1 4.75 14h2.5a.8.8 0 0 1 .53.193c.14.123.219.29.22.463v2.188a.62.62 0 0 1-.22.463.8.8 0 0 1-.53.193h-2.5a.8.8 0 0 1-.53-.193.62.62 0 0 1-.22-.463zm0 7c0-.173.079-.34.22-.463A.8.8 0 0 1 4.75 21h2.5a.8.8 0 0 1 .53.193c.14.123.219.29.22.463v2.188a.62.62 0 0 1-.22.463.8.8 0 0 1-.53.193h-2.5a.8.8 0 0 1-.53-.193.62.62 0 0 1-.22-.463zM25 3.5h-3V.874a.83.83 0 0 0-.294-.617A1.08 1.08 0 0 0 21 0h-2a1.08 1.08 0 0 0-.705.257.83.83 0 0 0-.294.617V3.5h-8V.874a.83.83 0 0 0-.295-.618A1.08 1.08 0 0 0 9 0H7a1.08 1.08 0 0 0-.706.257A.83.83 0 0 0 6 .874V3.5H3c-.796 0-1.559.277-2.121.77C.317 4.76 0 5.427 0 6.123V8.75h28V6.124c0-.696-.317-1.363-.879-1.855s-1.325-.769-2.12-.769"/></svg>1 14.1922C15.9207 14.3149 16.0001 14.4812 16.001 14.6549V16.842C16.0005 17.016 15.9213 17.1827 15.7807 17.3057C15.6401 17.4287 15.4496 17.498 15.2507 17.4984H12.751C12.5522 17.498 12.3616 17.4287 12.221 17.3057C12.0804 17.1827 12.0012 17.016 12.0008 16.842V14.6564ZM12.0008 21.6564C12.0012 21.4825 12.0804 21.3157 12.221 21.1927C12.3616 21.0697 12.5522 21.0004 12.751 21H15.2507C15.4493 21.0004 15.6396 21.0695 15.7801 21.1922C15.9207 21.3149 16.0001 21.4812 16.001 21.6549V23.842C16.0005 24.016 15.9213 24.1827 15.7807 24.3057C15.6401 24.4287 15.4496 24.498 15.2507 24.4984H12.751C12.5522 24.498 12.3616 24.4287 12.221 24.3057C12.0804 24.1827 12.0012 24.016 12.0008 23.842V21.6564ZM4.00025 14.6564C4.00072 14.4825 4.07992 14.3157 4.22052 14.1927C4.36112 14.0697 4.55168 14.0004 4.75052 14H7.25024C7.44908 14.0004 7.63964 14.0697 7.78024 14.1927C7.92084 14.3157 8.00004 14.4825 8.00051 14.6564V16.8436C8.00004 17.0175 7.92084 17.1843 7.78024 17.3073C7.63964 17.4303 7.44908 17.4996 7.25024 17.5H4.75052C4.55168 17.4996 4.36112 17.4303 4.22052 17.3073C4.07992 17.1843 4.00072 17.0175 4.00025 16.8436V14.6564ZM4.00025 21.6564C4.00072 21.4825 4.07992 21.3157 4.22052 21.1927C4.36112 21.0697 4.55168 21.0004 4.75052 21H7.25024C7.44908 21.0004 7.63964 21.0697 7.78024 21.1927C7.92084 21.3157 8.00004 21.4825 8.00051 21.6564V23.8436C8.00004 24.0175 7.92084 24.1843 7.78024 24.3073C7.63964 24.4303 7.44908 24.4996 7.25024 24.5H4.75052C4.55168 24.4996 4.36112 24.4303 4.22052 24.3073C4.07992 24.1843 4.00072 24.0175 4.00025 23.8436V21.6564ZM25.0007 3.5H21.9996V0.874222C21.9987 0.642616 21.8931 0.420731 21.7059 0.256959C21.5188 0.0931884 21.2652 0.000819851 21.0004 0H19.0003C18.7356 0.000819851 18.482 0.0931884 18.2948 0.256959C18.1076 0.420731 18.0021 0.642616 18.0011 0.874222V3.5H10.0006V0.874222C9.9997 0.642348 9.89388 0.420228 9.70632 0.256412C9.51875 0.0925971 9.2647 0.000409671 8.99968 0H6.99956C6.73485 0.000819851 6.48125 0.0931884 6.29407 0.256959C6.10689 0.420731 6.00132 0.642616 6.00038 0.874222V3.5H2.9993C2.20398 3.50041 1.44137 3.77702 0.878995 4.26907C0.316619 4.76112 0.000471022 5.42836 0 6.12422V8.75H28V6.12422C27.9995 5.42836 27.6834 4.76112 27.121 4.26907C26.5586 3.77702 25.796 3.50041 25.0007 3.5Z" fill="black"/></svg>