<svg xmlns="http://www.w3.org/2000/svg" width="36" height="40" fill="none" viewBox="0 0 36 40"><path fill="#000" d="M12 18v4H8v-4zm8 0v4h-4v-4zm8 0v4h-4v-4zm4-14a4 4 0 0 1 4 4v28a4 4 0 0 1-4 4H4a4 4 0 0 1-4-4V8a4 4 0 0 1 4-4h2V0h4v4h16V0h4v4zm0 32V14H4v22zM12 26v4H8v-4zm8 0v4h-4v-4zm8 0v4h-4v-4z"/></svg>913 40 1.92172 39.5786 1.17157 38.8284C0.421427 38.0783 0 37.0609 0 36V8C0 6.93913 0.421427 5.92172 1.17157 5.17157C1.92172 4.42143 2.93913 4 4 4H6V0H10V4H26V0H30V4H32ZM32 36V14H4V36H32ZM12 26V30H8V26H12ZM20 26V30H16V26H20ZM28 26V30H24V26H28Z" fill="black"/></svg>