<svg xmlns="http://www.w3.org/2000/svg" width="14" height="14" fill="none" viewBox="0 0 14 14"><path fill="#F68521" d="M7 0a7 7 0 1 0 .001 14.001A7 7 0 0 0 7 0m3 7.375a.125.125 0 0 1-.125.125H7.5v2.375a.125.125 0 0 1-.125.125h-.75a.125.125 0 0 1-.125-.125V7.5H4.125A.125.125 0 0 1 4 7.375v-.75c0-.069.056-.125.125-.125H6.5V4.125c0-.069.056-.125.125-.125h.75c.069 0 .125.056.125.125V6.5h2.375c.069 0 .125.056.125.125z" opacity="0.5"/></svg>6.625 4H7.375C7.44375 4 7.5 4.05625 7.5 4.125V6.5H9.875C9.94375 6.5 10 6.55625 10 6.625V7.375Z" fill="#F68521"/></svg>