<svg xmlns="http://www.w3.org/2000/svg" width="41" height="40" fill="none" viewBox="0 0 41 40"><path fill="#000" d="m40.427 16.96-4.467-1.333a15.5 15.5 0 0 0-1.267-3.107l2.187-4.093a.81.81 0 0 0-.147-.96l-3.186-3.2a.81.81 0 0 0-.96-.147L28.52 6.294a15.5 15.5 0 0 0-3.147-1.334L24.04.547A.81.81 0 0 0 23.253 0h-4.506a.81.81 0 0 0-.774.574l-1.333 4.4a15.5 15.5 0 0 0-3.173 1.333l-4-2.16a.81.81 0 0 0-.96.147l-3.24 3.16a.81.81 0 0 0-.147.96l2.16 4c-.56 1-1.007 2.06-1.333 3.16l-4.414 1.333a.81.81 0 0 0-.573.773v4.507a.81.81 0 0 0 .573.773l4.44 1.334A15.5 15.5 0 0 0 7.307 27.4L5.12 31.587a.81.81 0 0 0 .147.96l3.186 3.187a.81.81 0 0 0 .96.146l4.12-2.2c.975.526 2.003.946 3.067 1.254l1.333 4.493a.81.81 0 0 0 .774.573h4.506a.81.81 0 0 0 .774-.573l1.333-4.507a15.5 15.5 0 0 0 3.04-1.253l4.147 2.213a.81.81 0 0 0 .96-.147l3.186-3.186a.81.81 0 0 0 .147-.96l-2.213-4.134c.53-.97.954-1.993 1.266-3.053l4.494-1.333a.81.81 0 0 0 .573-.773v-4.547a.81.81 0 0 0-.493-.787M21 27.334a7.333 7.333 0 1 1 0-14.667 7.333 7.333 0 0 1 0 14.667"/></svg>6.9069C1.36786 16.958 1.22304 17.0605 1.11993 17.1996C1.01681 17.3387 0.960767 17.5071 0.959961 17.6802V22.1869C0.960767 22.36 1.01681 22.5284 1.11993 22.6675C1.22304 22.8066 1.36786 22.9091 1.53329 22.9602L5.97329 24.2935C6.30309 25.3746 6.7502 26.4164 7.30663 27.4002L5.11996 31.5869C5.03791 31.7414 5.00787 31.9182 5.03429 32.0912C5.06071 32.2641 5.14219 32.4239 5.26663 32.5469L8.45329 35.7335C8.57626 35.858 8.73607 35.9395 8.909 35.9659C9.08194 35.9923 9.25879 35.9622 9.41329 35.8802L13.5333 33.6802C14.5079 34.2061 15.536 34.6263 16.6 34.9335L17.9333 39.4269C17.9844 39.5923 18.0869 39.7371 18.226 39.8402C18.3651 39.9434 18.5335 39.9994 18.7066 40.0002H23.2133C23.3864 39.9994 23.5548 39.9434 23.6939 39.8402C23.833 39.7371 23.9355 39.5923 23.9866 39.4269L25.32 34.9202C26.3749 34.6113 27.3939 34.1912 28.36 33.6669L32.5066 35.8802C32.6611 35.9622 32.838 35.9923 33.0109 35.9659C33.1839 35.9395 33.3437 35.858 33.4666 35.7335L36.6533 32.5469C36.7777 32.4239 36.8592 32.2641 36.8856 32.0912C36.9121 31.9182 36.882 31.7414 36.8 31.5869L34.5866 27.4535C35.1164 26.4838 35.5411 25.4602 35.8533 24.4002L40.3466 23.0669C40.5121 23.0158 40.6569 22.9132 40.76 22.7741C40.8631 22.635 40.9192 22.4667 40.92 22.2935V17.7469C40.9278 17.5811 40.8848 17.4168 40.7966 17.2762C40.7084 17.1356 40.5793 17.0253 40.4266 16.9602ZM21 27.3335C19.5496 27.3335 18.1317 26.9034 16.9258 26.0976C15.7198 25.2918 14.7799 24.1465 14.2248 22.8065C13.6698 21.4666 13.5246 19.9921 13.8075 18.5695C14.0905 17.147 14.7889 15.8403 15.8145 14.8148C16.8401 13.7892 18.1468 13.0907 19.5693 12.8078C20.9918 12.5248 22.4663 12.67 23.8063 13.2251C25.1463 13.7801 26.2916 14.7201 27.0974 15.926C27.9032 17.132 28.3333 18.5498 28.3333 20.0002C28.3333 21.9451 27.5607 23.8104 26.1854 25.1857C24.8101 26.5609 22.9449 27.3335 21 27.3335Z" fill="black"/></svg>