<svg xmlns="http://www.w3.org/2000/svg" width="39" height="32" fill="none" viewBox="0 0 39 32"><path fill="#000" d="M6 24.038H1.2A1.2 1.2 0 0 0 0 25.25v4.8a1.2 1.2 0 0 0 1.2 1.2H6a1.2 1.2 0 0 0 1.2-1.2v-4.8A1.2 1.2 0 0 0 6 24.038M6 0H1.2A1.2 1.2 0 0 0 0 1.2V6a1.2 1.2 0 0 0 1.2 1.2H6A1.2 1.2 0 0 0 7.2 6V1.2A1.2 1.2 0 0 0 6 0m0 12.02H1.2a1.2 1.2 0 0 0-1.2 1.2v4.8a1.2 1.2 0 0 0 1.2 1.2H6a1.2 1.2 0 0 0 1.2-1.2v-4.8a1.2 1.2 0 0 0-1.2-1.2m31.26 13.23H13.222a1.2 1.2 0 0 0-1.2 1.2v2.4a1.2 1.2 0 0 0 1.2 1.2H37.26a1.2 1.2 0 0 0 1.2-1.2v-2.4a1.2 1.2 0 0 0-1.2-1.2m0-24.038H13.222a1.2 1.2 0 0 0-1.2 1.2v2.4a1.2 1.2 0 0 0 1.2 1.2H37.26a1.2 1.2 0 0 0 1.2-1.2v-2.4a1.2 1.2 0 0 0-1.2-1.21zm0 12.02H13.222a1.2 1.2 0 0 0-1.2 1.2v2.4a1.2 1.2 0 0 0 1.2 1.2H37.26a1.2 1.2 0 0 0 1.2-1.2v-2.4a1.2 1.2 0 0 0-1.2-1.21z"/></svg>174 6.00064e-05 1.2V6C6.00064e-05 6.31826 0.126488 6.62348 0.351532 6.84853C0.576576 7.07357 0.8818 7.2 1.20006 7.2H6.00006C6.31832 7.2 6.62354 7.07357 6.84859 6.84853C7.07363 6.62348 7.20006 6.31826 7.20006 6V1.2C7.20006 0.88174 7.07363 0.576516 6.84859 0.351472C6.62354 0.126428 6.31832 0 6.00006 0ZM6.00006 12.02H1.20006C0.8818 12.02 0.576576 12.1464 0.351532 12.3715C0.126488 12.5965 6.00064e-05 12.9017 6.00064e-05 13.22V18.02C6.00064e-05 18.3383 0.126488 18.6435 0.351532 18.8685C0.576576 19.0936 0.8818 19.22 1.20006 19.22H6.00006C6.31832 19.22 6.62354 19.0936 6.84859 18.8685C7.07363 18.6435 7.20006 18.3383 7.20006 18.02V13.22C7.20006 12.9017 7.07363 12.5965 6.84859 12.3715C6.62354 12.1464 6.31832 12.02 6.00006 12.02ZM37.2601 25.25H13.2221C12.9038 25.25 12.5986 25.3764 12.3735 25.6015C12.1485 25.8265 12.0221 26.1317 12.0221 26.45V28.85C12.0221 29.0076 12.0531 29.1636 12.1134 29.3092C12.1737 29.4548 12.2621 29.5871 12.3735 29.6985C12.485 29.81 12.6172 29.8983 12.7628 29.9587C12.9084 30.019 13.0645 30.05 13.2221 30.05H37.2601C37.4176 30.05 37.5737 30.019 37.7193 29.9587C37.8649 29.8983 37.9972 29.81 38.1086 29.6985C38.22 29.5871 38.3084 29.4548 38.3687 29.3092C38.429 29.1636 38.4601 29.0076 38.4601 28.85V26.45C38.4601 26.2924 38.429 26.1364 38.3687 25.9908C38.3084 25.8452 38.22 25.7129 38.1086 25.6015C37.9972 25.49 37.8649 25.4016 37.7193 25.3413C37.5737 25.281 37.4176 25.25 37.2601 25.25ZM37.2601 1.212H13.2221C12.9038 1.212 12.5986 1.33843 12.3735 1.56347C12.1485 1.78852 12.0221 2.09374 12.0221 2.412V4.812C12.0221 5.13026 12.1485 5.43548 12.3735 5.66053C12.5986 5.88557 12.9038 6.012 13.2221 6.012H37.2601C37.4176 6.012 37.5737 5.98096 37.7193 5.92066C37.8649 5.86035 37.9972 5.77196 38.1086 5.66053C38.22 5.5491 38.3084 5.41681 38.3687 5.27122C38.429 5.12563 38.4601 4.96959 38.4601 4.812V2.412C38.4614 2.25357 38.4313 2.09645 38.3716 1.94971C38.3119 1.80296 38.2237 1.66949 38.1121 1.557C38.0006 1.44451 37.8679 1.35522 37.7216 1.29429C37.5754 1.23336 37.4185 1.20199 37.2601 1.202V1.212ZM37.2601 13.232H13.2221C12.9038 13.232 12.5986 13.3584 12.3735 13.5835C12.1485 13.8085 12.0221 14.1137 12.0221 14.432V16.832C12.0221 17.1503 12.1485 17.4555 12.3735 17.6805C12.5986 17.9056 12.9038 18.032 13.2221 18.032H37.2601C37.4176 18.032 37.5737 18.001 37.7193 17.9407C37.8649 17.8803 37.9972 17.792 38.1086 17.6805C38.22 17.5691 38.3084 17.4368 38.3687 17.2912C38.429 17.1456 38.4601 16.9896 38.4601 16.832V14.432C38.4614 14.2736 38.4313 14.1165 38.3716 13.9697C38.3119 13.823 38.2237 13.6895 38.1121 13.577C38.0006 13.4645 37.8679 13.3752 37.7216 13.3143C37.5754 13.2534 37.4185 13.222 37.2601 13.222V13.232Z" fill="black"/></svg>