<svg xmlns="http://www.w3.org/2000/svg" width="248" height="329" fill="none" viewBox="0 0 248 329"><g clip-path="url(#a)"><g clip-path="url(#b)"><path fill="#3E7739" d="M132.35 45.3c-4.36 5.65-9.93-6.6-11.74 0-.34 1.23-.58 2.37-.8 3.46l-.16-.23c-4.18-5.47-7.68.65-13.84-3-1.14-.68 9.75-3.24 8.42-3.14 0 0-9.75-4.36-15.07-11.49S94.84 10.79 97.6.84l4.68 1.3c12.11 3.36 24.86 13.31 29.05 21.36 4.85 9.32 1 21.7 1 21.7-.59.5.47-.48.02.1"/><path fill="#396C34" d="M102.26 7.39a1.63 1.63 0 0 1 2.29.12l2.83 3.14a69.8 69.8 0 0 1 14.44 25.06 1.627 1.627 0 0 1-1.045 2.045 1.624 1.624 0 0 1-2.045-1.045A66.2 66.2 0 0 0 105 12.82l-2.83-3.14a1.63 1.63 0 0 1 .09-2.29"/><path fill="url(#c)" d="M123 235.98c56.145 0 101.66-45.515 101.66-101.66S179.145 32.66 123 32.66 21.34 78.175 21.34 134.32 66.855 235.98 123 235.98"/><path fill="#FEBB12" d="M154.56 231c2.5-.82 5-1.72 7.36-2.72A101.659 101.659 0 0 1 99 35.53q-3.78.93-7.55 2.15A101.68 101.68 0 1 0 154.56 231"/><path fill="url(#d)" d="M182.37 177a11.7 11.7 0 0 1 4.9.2 13.8 13.8 0 0 1 4.3 2 12.4 12.4 0 0 1 3.3 3.43 12.1 12.1 0 0 1 1.77 4.63 12.5 12.5 0 0 1-2.37 9.41q-22.36 24.81-54.7 30.15-38.349 6.33-69.84-16.24-31.49-22.57-37.81-60.92-6.3-38.24 16.26-69.72T109.08 42q32.8-5.41 62.81 11.83a11.3 11.3 0 0 1 4.63 7.89 12.7 12.7 0 0 1-.12 5 12.3 12.3 0 0 1-2 4.3 12.05 12.05 0 0 1-3.5 3.24 12.6 12.6 0 0 1-4.6 1.74 12.74 12.74 0 0 1-9-2.08 67.2 67.2 0 0 0-21.1-7.43 68.5 68.5 0 0 0-23.07 0q-28.18 4.65-44.87 27.93-16.49 23-11.84 51.19 4.65 28.191 27.68 44.79 23.13 16.59 51.44 11.92a66.4 66.4 0 0 0 40-21.91 13.1 13.1 0 0 1 6.83-3.41"/><path fill="#fff" d="M162.34 156.89a6.9 6.9 0 0 1 3-.24 8.2 8.2 0 0 1 2.72.86 7.2 7.2 0 0 1 2.22 1.81 7.1 7.1 0 0 1 1.4 2.65 7.5 7.5 0 0 1-.72 5.8 55.55 55.55 0 0 1-30.57 22.06 56.43 56.43 0 0 1-43.02-4.63 56.43 56.43 0 0 1-27.1-33.73 56.56 56.56 0 0 1 38.36-70.11q19.24-5.64 38.49 2.49a6.8 6.8 0 0 1 3.34 4.4c.303.969.405 1.99.3 3a7.6 7.6 0 0 1-.86 2.72 7.4 7.4 0 0 1-1.86 2.2 7.8 7.8 0 0 1-2.66 1.37 7.67 7.67 0 0 1-5.54-.59A40.7 40.7 0 0 0 126.61 94a41.3 41.3 0 0 0-13.82 1.69A41.48 41.48 0 0 0 88 115.61a41.48 41.48 0 0 0-3.4 31.62 41.55 41.55 0 0 0 73.92 12.13 7.94 7.94 0 0 1 3.82-2.47"/><path fill="#255296" d="M4.15 257.5c11.63-13.22 47.2-8.29 65.88-20.49 4-2.59 5.68-5.65 4.9 2.44-1.57 13.72-19.15 19.21-30.68 19.52-3.65 7.2-15 60.86-5.56 63.89 1.25.62 2.56.32 2.76 1.19.16 3.83-14.83 9-17.91-6.11-1.86-10.7-1-52 10.9-57.23-9.91.12-19 1.24-22.24 6-2.54 4.09 1.71 10.83 7.87 10 3.45-.62 5.62-2 5.38-.62-.31 2.19-8 10.8-16.27 6.76C-.17 278.76-3.15 266 4.15 257.5"/><path fill="#255296" d="M64.91 310.64c-8-.33-8.58-9.13-8.07-15.6a85 85 0 0 1 1.38-9.43 22.4 22.4 0 0 1-5.13 1.66c-2.77.37-5.54-.45-6.49-3.36-.58-2.07-.93-6.68.46-9 1.67-3.06 6-.85 6.27.83.91 4.67-6.35 10.23 7-2.65a9.26 9.26 0 0 1 4.19-2.55 5.66 5.66 0 0 1 6.21 3.7c1.13 4.06-2.62 17.92-2.65 22.89 5.68-4.82 21.87-22.14 25.06-24.27 7.93-.78-17.23 37.97-28.23 37.78"/><path fill="#255296" d="M132.92 288.18c-2.83 4.44-6.43 9.52-11.72 11.67-3.65 1.32-7.17-.34-9.29-3.52a17.3 17.3 0 0 1-7.73 4.75 9.39 9.39 0 0 1-10.24-5.24c-4-9 1.74-33.82 16.72-31.16a8.4 8.4 0 0 1 2.1.7 22.1 22.1 0 0 1 2.34-6.53c3.19-4.43 10.13 0 10.89 4.45v2.67c-.82 6.73-3.37 13.13-4.09 20.66v.28c6.41-5.64 10.89-13.23 16.84-20.05 3.19-3.69 6-6.48 7.09-5.89 3.32 3.03-11.07 24.48-12.91 27.21m-22.48-14.61c1.09-3.2 1.72-6 .33-5.69-6.58 2.18-9 11.95-9 18.3a10.4 10.4 0 0 0 .42 3.39h.09c3.62-4.36 6.21-10.21 8.16-16"/><path fill="#255296" d="M180.31 248.46c-1.37 8.7-6.8 34.64-17.91 39.45-6.28 2.3-10.82-3.73-11.49-5.41-1.55-3.87-5.07-19.71-3.81-27.28.62-3.64 6-8.49 8.48 0 1.4 5.57 2.23 15 4.3 20.35.59-1.06 1.12-1.92 1.72-2.89 5-8.07 8.65-16.93 14.39-26.19 4.48-7.18 5.39-5.27 4.32 1.97m42.77 14.01c-4.43 5.45-9.27 10.36-14.84 13.69-9.77 5-19.52 1.9-20.87-11.31-.78-11.6 4.76-21.73 13.4-25.69 8.42-3.35 19-2.06 14.7 10.46-3.41 7.05-9.37 11.12-17.41 11a7.4 7.4 0 0 0 .72 2.69c4.76 8.92 25.77-13.4 32.44-22.23a1.6 1.6 0 0 1 1.79-.6c2.56 3.42-7.85 19.11-9.93 21.99m-24.86-3.94c1.88-1.82 5.82-5 7.12-6.54 11.73-13.61-6.02-4.11-7.12 6.54"/><path fill="#255296" d="M244.12 274.11c0 .91.12 1.72-.1 2-2.4 1.11-5.69-1.89-7.86-4.88-3.62-4.86-4.18-10.8-3.57-16.84 1.53-16.65 5.54-33.33 7-50.5.23-2.54 2.68-.35 3.47.66 2.7 3.69 3.93 12.06 4.09 14 1.72 18.09-5.24 34.36-3.03 55.56"/></g></g><defs><clipPath id="a"><path fill="#fff" d="M0 0h248v329H0z"/></clipPath><clipPath id="b"><path fill="#fff" d="M0 0h248v329H0z"/></clipPath><radialGradient id="c" cx="0" cy="0" r="1" gradientTransform="translate(88.91 38.24)scale(329.93)" gradientUnits="userSpaceOnUse"><stop stop-color="#FDD900"/><stop offset="0.52" stop-color="#F78F1F"/><stop offset="1" stop-color="#FDD900"/></radialGradient><linearGradient id="d" x1="31.0677" x2="202.278" y1="123.418" y2="143.804" gradientUnits="userSpaceOnUse"><stop stop-color="#F15A29"/><stop offset="1" stop-color="#F7941D"/></linearGradient></defs></svg>0.5999 266.17 29.2499 319.83 38.6899 322.86C39.9399 323.48 41.2499 323.18 41.4499 324.05C41.6099 327.88 26.6199 333.05 23.5399 317.94C21.6799 307.24 22.5399 265.94 34.4399 260.71C24.5299 260.83 15.4399 261.95 12.1999 266.71C9.65988 270.8 13.9099 277.54 20.0699 276.71C23.5199 276.09 25.6899 274.71 25.4499 276.09C25.1399 278.28 17.4499 286.89 9.17989 282.85C-0.170113 278.76 -3.15011 266 4.14989 257.5Z" fill="#255296"/><path d="M64.9102 310.64C56.9102 310.31 56.3301 301.51 56.8401 295.04C57.1235 291.873 57.5843 288.725 58.2201 285.61C56.5835 286.368 54.8609 286.926 53.0901 287.27C50.3201 287.64 47.5502 286.82 46.6002 283.91C46.0202 281.84 45.6701 277.23 47.0601 274.91C48.7301 271.85 53.0602 274.06 53.3302 275.74C54.2402 280.41 46.9801 285.97 60.3301 273.09C61.4722 271.879 62.9197 270.998 64.5202 270.54C65.8243 270.336 67.1588 270.594 68.2928 271.269C69.4267 271.945 70.2889 272.996 70.7301 274.24C71.8601 278.3 68.1102 292.16 68.0802 297.13C73.7602 292.31 89.9501 274.99 93.1401 272.86C101.07 272.08 75.9102 310.83 64.9102 310.64Z" fill="#255296"/><path d="M132.92 288.18C130.09 292.62 126.49 297.7 121.2 299.85C117.55 301.17 114.03 299.51 111.91 296.33C109.801 298.573 107.133 300.212 104.18 301.08C102.134 301.466 100.017 301.16 98.1637 300.212C96.3101 299.263 94.8243 297.725 93.94 295.84C89.94 286.84 95.68 262.02 110.66 264.68C111.388 264.819 112.094 265.055 112.76 265.38C113.192 263.094 113.981 260.89 115.1 258.85C118.29 254.42 125.23 258.85 125.99 263.3C125.99 264.21 125.99 265.04 125.99 265.97C125.17 272.7 122.62 279.1 121.9 286.63C121.9 286.71 121.9 286.82 121.9 286.91C128.31 281.27 132.79 273.68 138.74 266.86C141.93 263.17 144.74 260.38 145.83 260.97C149.15 264 134.76 285.45 132.92 288.18ZM110.44 273.57C111.53 270.37 112.16 267.57 110.77 267.88C104.19 270.06 101.77 279.83 101.77 286.18C101.722 287.325 101.864 288.471 102.19 289.57H102.28C105.9 285.21 108.49 279.36 110.44 273.57Z" fill="#255296"/><path d="M180.31 248.46C178.94 257.16 173.51 283.1 162.4 287.91C156.12 290.21 151.58 284.18 150.91 282.5C149.36 278.63 145.84 262.79 147.1 255.22C147.72 251.58 153.1 246.73 155.58 255.22C156.98 260.79 157.81 270.22 159.88 275.57C160.47 274.51 161 273.65 161.6 272.68C166.6 264.61 170.25 255.75 175.99 246.49C180.47 239.31 181.38 241.22 180.31 248.46Z" fill="#255296"/><path d="M223.08 262.47C218.65 267.92 213.81 272.83 208.24 276.16C198.47 281.16 188.72 278.06 187.37 264.85C186.59 253.25 192.13 243.12 200.77 239.16C209.19 235.81 219.77 237.1 215.47 249.62C212.06 256.67 206.1 260.74 198.06 260.62C198.128 261.554 198.372 262.467 198.78 263.31C203.54 272.23 224.55 249.91 231.22 241.08C231.416 240.803 231.695 240.596 232.017 240.488C232.339 240.38 232.686 240.377 233.01 240.48C235.57 243.9 225.16 259.59 223.08 262.47ZM198.22 258.53C200.1 256.71 204.04 253.53 205.34 251.99C217.07 238.38 199.32 247.88 198.22 258.53Z" fill="#255296"/><path d="M244.12 274.11C244.12 275.02 244.24 275.83 244.02 276.11C241.62 277.22 238.33 274.22 236.16 271.23C232.54 266.37 231.98 260.43 232.59 254.39C234.12 237.74 238.13 221.06 239.59 203.89C239.82 201.35 242.27 203.54 243.06 204.55C245.76 208.24 246.99 216.61 247.15 218.55C248.87 236.64 241.91 252.91 244.12 274.11Z" fill="#255296"/></g></g><defs><radialGradient id="paint0_radial_83_1700" cx="0" cy="0" r="1" gradientUnits="userSpaceOnUse" gradientTransform="translate(88.9098 38.2402) scale(329.93)"><stop stop-color="#FDD900"/><stop offset="0.52" stop-color="#F78F1F"/><stop offset="1" stop-color="#FDD900"/></radialGradient><linearGradient id="paint1_linear_83_1700" x1="31.0677" y1="123.418" x2="202.278" y2="143.804" gradientUnits="userSpaceOnUse"><stop stop-color="#F15A29"/><stop offset="1" stop-color="#F7941D"/></linearGradient><clipPath id="clip0_83_1700"><rect width="248" height="329" fill="white"/></clipPath><clipPath id="clip1_83_1700"><rect width="248" height="329" fill="white"/></clipPath></defs></svg>