<svg xmlns="http://www.w3.org/2000/svg" width="36" height="36" fill="none" viewBox="0 0 36 36"><path fill="#000" d="m34.973 25.439-7.875-3.375a1.69 1.69 0 0 0-1.969.485l-3.487 4.261A26.06 26.06 0 0 1 9.183 14.351l4.261-3.488a1.684 1.684 0 0 0 .485-1.968L10.554 1.02A1.7 1.7 0 0 0 8.62.042L1.308 1.73A1.69 1.69 0 0 0 0 3.374C0 21.41 14.618 36 32.626 36a1.69 1.69 0 0 0 1.645-1.308l1.687-7.312a1.71 1.71 0 0 0-.985-1.941"/></svg>361088 9.76331 0.182669C9.41032 0.00425057 9.00614 -0.0454089 8.62046 0.0422538L1.30784 1.72978C0.935995 1.81565 0.604237 2.02502 0.366711 2.32371C0.129184 2.62241 -8.56569e-05 2.9928 4.25834e-08 3.37442C4.25834e-08 21.4099 14.6182 36 32.6256 36C33.0073 36.0002 33.3779 35.871 33.6767 35.6335C33.9755 35.396 34.185 35.0641 34.2709 34.6922L35.9584 27.3795C36.0455 26.992 35.9948 26.5862 35.815 26.232C35.6352 25.8778 35.3376 25.5973 34.9733 25.4389Z" fill="black"/></svg>