<svg xmlns="http://www.w3.org/2000/svg" width="42" height="42" fill="none" viewBox="0 0 42 42"><path fill="#000" d="M21 0C9.403 0 0 9.403 0 21s9.403 21 21 21 21-9.403 21-21S32.597 0 21 0m9 22.125a.376.376 0 0 1-.375.375H22.5v7.125a.376.376 0 0 1-.375.375h-2.25a.376.376 0 0 1-.375-.375V22.5h-7.125a.376.376 0 0 1-.375-.375v-2.25c0-.206.169-.375.375-.375H19.5v-7.125c0-.206.169-.375.375-.375h2.25c.206 0 .375.169.375.375V19.5h7.125c.206 0 .375.169.375.375z"/></svg>12H22.125C22.3312 12 22.5 12.1687 22.5 12.375V19.5H29.625C29.8312 19.5 30 19.6688 30 19.875V22.125Z" fill="black"/></svg>