<svg xmlns="http://www.w3.org/2000/svg" width="32" height="32" fill="none" viewBox="0 0 32 32"><path fill="#000" d="M18.994 11.994v2a.75.75 0 0 1-.75.75h-3.496v3.5a.75.75 0 0 1-.75.75h-2.006a.753.753 0 0 1-.75-.75V14.75h-3.5a.75.75 0 0 1-.75-.75v-2.005a.75.75 0 0 1 .75-.75h3.5v-3.5a.75.75 0 0 1 .75-.75h2a.75.75 0 0 1 .756.75v3.5h3.5a.75.75 0 0 1 .746.75M31.56 29.79l-1.77 1.769a1.494 1.494 0 0 1-2.119 0l-6.24-6.231a1.5 1.5 0 0 1-.437-1.067v-1.019A12.999 12.999 0 0 1 .006 12.597 12.995 12.995 0 0 1 12.6.007 13 13 0 0 1 25.941 11.8a13 13 0 0 1-2.696 9.19h1.02a1.5 1.5 0 0 1 1.066.438l6.232 6.231a1.51 1.51 0 0 1-.003 2.13M21.496 12.995a8.5 8.5 0 0 0-10.16-8.337 8.502 8.502 0 0 0-6.195 11.59 8.5 8.5 0 0 0 11.107 4.6 8.49 8.49 0 0 0 5.246-7.853z"/></svg> 6.99374 14.1891 7.01279 14.2806 7.05026C14.3722 7.08773 14.4554 7.14289 14.5256 7.21259C14.5958 7.28228 14.6516 7.36513 14.6897 7.4564C14.7278 7.54767 14.7476 7.64556 14.7478 7.74447V11.2433H18.2489C18.4468 11.2452 18.6361 11.325 18.7755 11.4654C18.915 11.6059 18.9935 11.7956 18.9939 11.9936ZM31.5599 29.79L29.7907 31.559C29.6518 31.6987 29.4867 31.8097 29.3048 31.8853C29.123 31.961 28.9279 32 28.7309 32C28.5339 32 28.3388 31.961 28.157 31.8853C27.9751 31.8097 27.81 31.6987 27.6711 31.559L21.4317 25.3276C21.292 25.1874 21.1814 25.021 21.1063 24.8379C21.0313 24.6548 20.9932 24.4587 20.9943 24.2608V23.2421C18.3854 25.2777 15.0981 26.2416 11.8029 25.9373C8.50766 25.6331 5.45256 24.0836 3.26052 21.6048C1.06848 19.126 -0.0954259 15.9046 0.00612773 12.5974C0.107681 9.29014 1.46704 6.14617 3.80704 3.8065C6.14704 1.46684 9.29146 0.107666 12.5992 0.00612686C15.9069 -0.0954124 19.1287 1.06832 21.6079 3.26006C24.087 5.45179 25.6367 8.50646 25.941 11.8012C26.2453 15.096 25.2812 18.3828 23.2454 20.9913H24.2643C24.4622 20.9902 24.6583 21.0283 24.8414 21.1033C25.0246 21.1784 25.191 21.289 25.3311 21.4287L31.5634 27.6601C31.8438 27.9439 32.0007 28.3269 32 28.7258C31.9993 29.1247 31.8412 29.5071 31.5599 29.79ZM21.4957 12.9945C21.4957 11.3134 20.9972 9.66998 20.063 8.27217C19.1289 6.87436 17.8012 5.78489 16.2478 5.14155C14.6944 4.49821 12.9851 4.32988 11.3361 4.65785C9.687 4.98583 8.17224 5.79537 6.98332 6.98411C5.79441 8.17286 4.98476 9.68741 4.65673 11.3362C4.32872 12.9851 4.49707 14.6941 5.1405 16.2473C5.78394 17.8005 6.87355 19.128 8.27156 20.062C9.66957 20.996 11.3132 21.4945 12.9946 21.4945C14.1111 21.4952 15.2168 21.2758 16.2484 20.8488C17.28 20.4219 18.2173 19.7958 19.0067 19.0063C19.7961 18.2169 20.4221 17.2796 20.8489 16.248C21.2757 15.2164 21.4949 14.1108 21.494 12.9945H21.4957Z" fill="black"/></svg>