<svg xmlns="http://www.w3.org/2000/svg" width="40" height="38" fill="none" viewBox="0 0 40 38"><path fill="#000" d="M31.12 38a2 2 0 0 1-.92-.22L20 32.44 9.8 37.78a2 2 0 0 1-2.9-2.12l2-11.26-8.24-8a2 2 0 0 1-.5-2 2 2 0 0 1 1.62-1.36l11.4-1.66L18.2 1.12a2 2 0 0 1 3.6 0l5.08 10.24 11.4 1.66a2 2 0 0 1 1.62 1.36 2 2 0 0 1-.5 2l-8.24 8 2 11.26a2 2 0 0 1-.8 2 2 2 0 0 1-1.24.36"/></svg>0013 16.3997C0.402929 16.1431 0.220557 15.8214 0.132469 15.4691C0.0443813 15.1167 0.0539034 14.747 0.160013 14.3997C0.275933 14.0442 0.489166 13.7284 0.775514 13.488C1.06186 13.2476 1.40986 13.0923 1.78001 13.0397L13.18 11.3797L18.2 1.11968C18.3638 0.781533 18.6195 0.49636 18.9378 0.296823C19.2562 0.0972855 19.6243 -0.00854492 20 -0.00854492C20.3757 -0.00854492 20.7438 0.0972855 21.0622 0.296823C21.3805 0.49636 21.6362 0.781533 21.8 1.11968L26.88 11.3597L38.28 13.0197C38.6502 13.0723 38.9982 13.2276 39.2845 13.468C39.5709 13.7084 39.7841 14.0242 39.9 14.3797C40.0061 14.727 40.0156 15.0967 39.9276 15.4491C39.8395 15.8014 39.6571 16.1231 39.4 16.3797L31.16 24.3797L33.16 35.6397C33.2314 36.0146 33.194 36.4022 33.0523 36.7566C32.9105 37.111 32.6703 37.4174 32.36 37.6397C31.9978 37.8935 31.5618 38.0201 31.12 37.9997Z" fill="black"/></svg>