<svg xmlns="http://www.w3.org/2000/svg" width="43" height="37" fill="none" viewBox="0 0 43 37"><path fill="#000" d="M27.158 33.476a12.32 12.32 0 0 1-8.713-3.612 12.34 12.34 0 0 1 0-17.442 12.315 12.315 0 0 1 17.426 0 12.34 12.34 0 0 1 0 17.442 12.32 12.32 0 0 1-8.713 3.612M39.532 11.26l2.5-2.502a25 25 0 0 0-2.482-2.485l-2.5 2.538a15.6 15.6 0 0 0-9.892-3.524c-4.202 0-8.231 1.67-11.202 4.644a15.865 15.865 0 0 0 0 22.426c2.97 2.973 7 4.644 11.202 4.644C35.959 37 43 29.9 43 21.143a15.8 15.8 0 0 0-3.468-9.884M25.398 22.905h3.52V12.333h-3.52zM32.438 0h-10.56v3.524h10.56zM4.828 24.817h4.828v3.624H4.828zM2.414 12.735h7.243v3.625H2.414zM0 18.776h8.45v3.625H0z"/></svg>93016C12.9849 12.904 11.3158 16.9373 11.3158 21.1429C11.3158 25.3484 12.9849 29.3818 15.9558 32.3555C18.9268 35.3293 22.9563 37 27.1579 37C35.9591 37 43 29.8995 43 21.1429C43 17.4076 41.6974 13.9719 39.5323 11.2586ZM25.3977 22.9048H28.9181V12.3333H25.3977V22.9048ZM32.4386 0H21.8772V3.52381H32.4386V0Z" fill="black"/><path d="M4.82787 24.8168H9.65594V28.4413H4.82787V24.8168Z" fill="black"/><path d="M2.41443 12.7352H9.65653V16.3597H2.41443V12.7352Z" fill="black"/><path d="M0 18.7763H8.44912V22.4008H0V18.7763Z" fill="black"/></svg>