<svg xmlns="http://www.w3.org/2000/svg" width="36" height="36" fill="none" viewBox="0 0 36 36"><path fill="#000" d="M18.004 11.249a6.75 6.75 0 0 0-6.236 4.168 6.748 6.748 0 0 0 4.922 9.202 6.755 6.755 0 0 0 8.069-6.62 6.76 6.76 0 0 0-6.755-6.75m17.332 5.66-6.66-3.324 2.357-7.06a1.215 1.215 0 0 0-1.54-1.54L22.43 7.337 19.095.674a1.218 1.218 0 0 0-2.18 0l-3.326 6.658-7.07-2.356a1.217 1.217 0 0 0-1.54 1.54l2.356 7.06-6.66 3.332a1.218 1.218 0 0 0 0 2.18l6.66 3.326-2.357 7.069a1.215 1.215 0 0 0 1.54 1.54l7.063-2.357 3.327 6.659a1.219 1.219 0 0 0 2.18 0l3.318-6.659 7.062 2.357a1.216 1.216 0 0 0 1.54-1.54l-2.356-7.06 6.66-3.326a1.218 1.218 0 0 0 .014-2.187zm-10.965 7.454A9.004 9.004 0 0 1 9 17.999a9 9 0 0 1 5.558-8.315 9.006 9.006 0 0 1 11.763 4.87 9 9 0 0 1-1.951 9.809"/></svg> 29.7069 4.91238 29.4923 4.98447L22.4299 7.33847L19.0948 0.674471C18.9937 0.471845 18.8382 0.301394 18.6456 0.182253C18.453 0.0631129 18.2309 0 18.0044 0C17.7779 0 17.5559 0.0631129 17.3633 0.182253C17.1707 0.301394 17.0152 0.471845 16.9141 0.674471L13.589 7.33247L6.51863 4.97647C6.30402 4.90438 6.07354 4.89359 5.85313 4.94532C5.63272 4.99705 5.43113 5.10925 5.27104 5.26929C5.11095 5.42933 4.99871 5.63085 4.94696 5.85119C4.89521 6.07153 4.906 6.30193 4.97812 6.51647L7.3349 13.5765L0.674695 16.9085C0.472001 17.0095 0.301494 17.165 0.182314 17.3576C0.0631338 17.5501 0 17.772 0 17.9985C0 18.2249 0.0631338 18.4468 0.182314 18.6394C0.301494 18.8319 0.472001 18.9874 0.674695 19.0885L7.3349 22.4145L4.97812 29.4825C4.906 29.697 4.89521 29.9274 4.94696 30.1477C4.99871 30.3681 5.11095 30.5696 5.27104 30.7297C5.43113 30.8897 5.63272 31.0019 5.85313 31.0536C6.07354 31.1054 6.30402 31.0946 6.51863 31.0225L13.581 28.6665L16.9081 35.3245C17.0092 35.5271 17.1647 35.6975 17.3573 35.8167C17.5499 35.9358 17.7719 35.9989 17.9984 35.9989C18.2249 35.9989 18.4469 35.9358 18.6396 35.8167C18.8322 35.6975 18.9877 35.5271 19.0888 35.3245L22.4059 28.6665L29.4682 31.0225C29.6829 31.0946 29.9133 31.1054 30.1337 31.0536C30.3542 31.0019 30.5558 30.8897 30.7158 30.7297C30.8759 30.5696 30.9882 30.3681 31.0399 30.1477C31.0917 29.9274 31.0809 29.697 31.0088 29.4825L28.652 22.4225L35.3122 19.0965C35.5171 18.9974 35.6902 18.8428 35.8117 18.6504C35.9333 18.458 35.9985 18.2354 36 18.0078C36.0014 17.7803 35.9391 17.5568 35.82 17.3629C35.7009 17.1689 35.5298 17.0122 35.3262 16.9105L35.3362 16.9085ZM24.3706 24.3625C23.1115 25.6211 21.5073 26.4783 19.7609 26.8255C18.0145 27.1728 16.2043 26.9946 14.5592 26.3134C12.9141 25.6322 11.5081 24.4786 10.5188 22.9986C9.52955 21.5186 9.00154 19.7785 9.00154 17.9985C9.00154 16.2184 9.52955 14.4784 10.5188 12.9984C11.5081 11.5183 12.9141 10.3648 14.5592 9.68357C16.2043 9.00237 18.0145 8.82414 19.7609 9.1714C21.5073 9.51865 23.1115 10.3758 24.3706 11.6345C25.2066 12.4702 25.8697 13.4624 26.3222 14.5543C26.7746 15.6462 27.0075 16.8166 27.0075 17.9985C27.0075 19.1804 26.7746 20.3507 26.3222 21.4426C25.8697 22.5346 25.2066 23.5267 24.3706 24.3625Z" fill="black"/></svg>