<svg xmlns="http://www.w3.org/2000/svg" width="40" height="40" fill="none" viewBox="0 0 40 40"><path fill="#000" d="M20 0C8.96 0 0 8.96 0 20s8.96 20 20 20 20-8.96 20-20S31.04 0 20 0m-9.86 32.56C11 30.76 16.24 29 20 29s9.02 1.76 9.86 3.56A15.8 15.8 0 0 1 20 36c-3.72 0-7.14-1.28-9.86-3.44m22.58-2.9C29.86 26.18 22.92 25 20 25s-9.86 1.18-12.72 4.66A15.9 15.9 0 0 1 4 20c0-8.82 7.18-16 16-16s16 7.18 16 16c0 3.64-1.24 6.98-3.28 9.66M20 8c-3.88 0-7 3.12-7 7s3.12 7 7 7 7-3.12 7-7-3.12-7-7-7m0 10c-1.66 0-3-1.34-3-3s1.34-3 3-3 3 1.34 3 3-1.34 3-3 3"/></svg> 27 18.88 27 15C27 11.12 23.88 8 20 8ZM20 18C18.34 18 17 16.66 17 15C17 13.34 18.34 12 20 12C21.66 12 23 13.34 23 15C23 16.66 21.66 18 20 18Z" fill="black"/></svg>